<svg width="466" height="278" viewBox="0 0 466 278" fill="none" xmlns="http://www.w3.org/2000/svg">
<g opacity="0.51">
<path d="M81.83 106.195C188.3 140.825 307.57 180.155 413.75 215.665C307.28 181.035 188.01 141.705 81.83 106.195Z" fill="#686767"/>
<path d="M162.51 70.9753L173.95 74.5853L173.92 74.6954L162.51 70.9753Z" fill="#686767"/>
<path d="M185.4 78.1953L196.84 81.8053L196.74 82.1252L185.33 78.4053L185.4 78.1953Z" fill="#686767"/>
<path d="M208.28 85.4355L219.71 89.0854L219.58 89.4955L208.16 85.8156L208.28 85.4355Z" fill="#686767"/>
<path d="M231.14 92.7253L242.58 96.3754L242.42 96.8654L231 93.1754L231.14 92.7253Z" fill="#686767"/>
<path d="M254.01 100.015L265.44 103.665L265.26 104.225L253.84 100.545L254.01 100.015Z" fill="#686767"/>
<path d="M276.87 107.305L288.31 110.955L288.11 111.585L276.68 107.905L276.87 107.305Z" fill="#686767"/>
<path d="M299.74 114.595L311.17 118.245L310.95 118.945L299.53 115.265L299.74 114.595Z" fill="#686767"/>
<path d="M322.6 121.916L334.02 125.595L333.81 126.245L322.38 122.605L322.6 121.916Z" fill="#686767"/>
<path d="M345.44 129.275L356.86 132.955L356.68 133.535L345.24 129.895L345.44 129.275Z" fill="#686767"/>
<path d="M368.28 136.646L379.71 140.325L379.54 140.825L368.11 137.186L368.28 136.646Z" fill="#686767"/>
<path d="M391.13 144.005L402.55 147.685L402.41 148.115L390.98 144.475L391.13 144.005Z" fill="#686767"/>
<path d="M413.97 151.365L425.39 155.045L425.27 155.405L413.84 151.765L413.97 151.365Z" fill="#686767"/>
<path d="M436.8 158.755L448.21 162.475L448.16 162.635L436.72 159.025L436.8 158.755Z" fill="#686767"/>
<path d="M459.62 166.195L465.45 168.085L459.61 166.245L459.62 166.195Z" fill="#686767"/>
<path d="M4.14001 149.275L11.77 151.675C11.77 151.675 11.8 151.695 11.79 151.715C11.79 151.735 11.77 151.745 11.75 151.735L4.14001 149.275Z" fill="#686767"/>
<path d="M19.3999 154.075L27.0299 156.475C27.0299 156.475 27.1099 156.545 27.0899 156.595C27.0699 156.645 27.02 156.675 26.97 156.655L19.36 154.195C19.36 154.195 19.31 154.145 19.32 154.115C19.33 154.085 19.3699 154.065 19.3999 154.075Z" fill="#686767"/>
<path d="M34.67 158.875L42.3 161.275C42.38 161.305 42.4299 161.385 42.3999 161.475C42.3699 161.555 42.29 161.605 42.2 161.575L34.5899 159.115C34.5199 159.095 34.49 159.025 34.51 158.955C34.53 158.885 34.6 158.855 34.67 158.875Z" fill="#686767"/>
<path d="M49.93 163.675L57.56 166.095C57.66 166.125 57.72 166.235 57.69 166.345C57.66 166.455 57.55 166.505 57.44 166.475L49.82 164.035C49.72 164.005 49.67 163.895 49.7 163.795C49.73 163.695 49.84 163.645 49.94 163.675H49.93Z" fill="#686767"/>
<path d="M65.18 168.505L72.81 170.925C72.93 170.965 72.99 171.085 72.95 171.205C72.91 171.325 72.79 171.385 72.67 171.345L65.05 168.905C64.94 168.865 64.88 168.755 64.91 168.645C64.94 168.535 65.06 168.475 65.17 168.505H65.18Z" fill="#686767"/>
<path d="M80.43 173.345L88.06 175.765C88.19 175.805 88.26 175.945 88.22 176.065C88.18 176.185 88.04 176.265 87.92 176.225L80.3 173.785C80.18 173.745 80.11 173.615 80.15 173.495C80.19 173.375 80.32 173.305 80.44 173.345H80.43Z" fill="#686767"/>
<path d="M95.68 178.186L103.31 180.605C103.45 180.645 103.53 180.796 103.48 180.936C103.44 181.076 103.29 181.145 103.15 181.105L95.5299 178.666C95.3999 178.626 95.32 178.485 95.37 178.345C95.42 178.205 95.55 178.136 95.69 178.186H95.68Z" fill="#686767"/>
<path d="M110.93 183.025L118.56 185.445C118.71 185.495 118.79 185.655 118.75 185.805C118.7 185.955 118.54 186.035 118.39 185.995L110.77 183.555C110.63 183.505 110.55 183.355 110.59 183.215C110.63 183.075 110.79 182.995 110.93 183.035V183.025Z" fill="#686767"/>
<path d="M126.18 187.865L133.81 190.285C133.97 190.335 134.06 190.505 134.01 190.665C133.96 190.825 133.79 190.915 133.63 190.865L126.01 188.425C125.85 188.375 125.77 188.205 125.82 188.055C125.87 187.895 126.04 187.815 126.19 187.865H126.18Z" fill="#686767"/>
<path d="M141.43 192.705L149.06 195.125C149.23 195.175 149.33 195.365 149.27 195.535C149.21 195.705 149.03 195.805 148.86 195.745L141.24 193.305C141.07 193.255 140.98 193.075 141.03 192.905C141.08 192.735 141.26 192.645 141.43 192.695V192.705Z" fill="#686767"/>
<path d="M156.69 197.545L164.32 199.965C164.5 200.025 164.61 200.215 164.55 200.405C164.49 200.585 164.3 200.695 164.11 200.635L156.49 198.195C156.31 198.135 156.21 197.945 156.27 197.765C156.33 197.585 156.52 197.485 156.69 197.545Z" fill="#686767"/>
<path d="M171.94 202.385L179.57 204.805C179.77 204.865 179.87 205.075 179.81 205.275C179.75 205.465 179.54 205.575 179.34 205.515L171.72 203.075C171.53 203.015 171.43 202.815 171.49 202.625C171.55 202.435 171.75 202.335 171.94 202.395V202.385Z" fill="#686767"/>
<path d="M187.18 207.235L194.8 209.675C194.99 209.735 195.09 209.935 195.03 210.125C194.97 210.315 194.77 210.415 194.58 210.355L186.95 207.935C186.76 207.875 186.65 207.665 186.71 207.475C186.77 207.285 186.98 207.175 187.17 207.235H187.18Z" fill="#686767"/>
<path d="M202.42 212.115L210.04 214.556C210.22 214.616 210.31 214.805 210.26 214.975C210.21 215.145 210.02 215.246 209.84 215.196L202.21 212.775C202.03 212.715 201.93 212.525 201.98 212.335C202.03 212.145 202.23 212.055 202.42 212.105V212.115Z" fill="#686767"/>
<path d="M217.66 216.995L225.28 219.435C225.45 219.485 225.54 219.665 225.48 219.835C225.43 220.005 225.25 220.095 225.09 220.035L217.46 217.615C217.29 217.565 217.19 217.375 217.25 217.205C217.31 217.035 217.49 216.935 217.66 216.995Z" fill="#686767"/>
<path d="M232.9 221.875L240.52 224.315C240.67 224.365 240.76 224.525 240.71 224.685C240.66 224.845 240.5 224.925 240.34 224.875L232.71 222.455C232.55 222.405 232.46 222.235 232.51 222.075C232.56 221.915 232.73 221.825 232.89 221.875H232.9Z" fill="#686767"/>
<path d="M248.13 226.755L255.75 229.195C255.89 229.245 255.97 229.395 255.93 229.535C255.88 229.675 255.73 229.755 255.59 229.715L247.96 227.295C247.81 227.245 247.73 227.085 247.78 226.945C247.83 226.795 247.99 226.715 248.13 226.765V226.755Z" fill="#686767"/>
<path d="M263.37 231.635L270.99 234.075C271.12 234.115 271.19 234.255 271.15 234.385C271.11 234.515 270.97 234.585 270.84 234.545L263.21 232.125C263.07 232.085 263 231.935 263.04 231.795C263.08 231.655 263.23 231.585 263.37 231.625V231.635Z" fill="#686767"/>
<path d="M278.61 236.515L286.23 238.955C286.35 238.995 286.42 239.125 286.38 239.245C286.34 239.365 286.21 239.435 286.09 239.395L278.46 236.975C278.33 236.935 278.27 236.805 278.3 236.675C278.34 236.555 278.47 236.485 278.6 236.525L278.61 236.515Z" fill="#686767"/>
<path d="M293.85 241.395L301.47 243.835C301.58 243.865 301.64 243.985 301.6 244.095C301.57 244.205 301.45 244.265 301.34 244.225L293.71 241.805C293.6 241.765 293.53 241.645 293.57 241.535C293.61 241.425 293.73 241.355 293.84 241.395H293.85Z" fill="#686767"/>
<path d="M309.08 246.275L316.7 248.725C316.79 248.755 316.84 248.855 316.81 248.945C316.78 249.035 316.68 249.095 316.59 249.055L308.96 246.645C308.86 246.615 308.8 246.505 308.83 246.405C308.86 246.305 308.97 246.245 309.07 246.275H309.08Z" fill="#686767"/>
<path d="M324.31 251.186L331.92 253.645C331.98 253.665 332.01 253.725 331.99 253.785C331.97 253.845 331.91 253.875 331.85 253.855L324.22 251.455C324.14 251.435 324.1 251.345 324.12 251.275C324.14 251.195 324.23 251.156 324.3 251.176L324.31 251.186Z" fill="#686767"/>
<path d="M339.54 256.105L347.15 258.566C347.15 258.566 347.19 258.606 347.18 258.626C347.17 258.646 347.14 258.666 347.12 258.656L339.49 256.256C339.49 256.256 339.42 256.196 339.44 256.156C339.45 256.116 339.5 256.085 339.54 256.105Z" fill="#686767"/>
<path d="M354.76 261.025L359.57 262.585L354.74 261.065C354.74 261.065 354.72 261.055 354.73 261.045C354.73 261.035 354.74 261.025 354.76 261.035V261.025Z" fill="#686767"/>
<g opacity="0.61">
<path d="M436.6 135.215L433.2 137.325C433.2 137.325 433.18 137.325 433.17 137.325C433.17 137.315 433.17 137.305 433.17 137.295L436.59 135.215H436.6Z" fill="#686767"/>
<path d="M426.4 141.555L419.6 145.785C419.55 145.815 419.48 145.805 419.45 145.755C419.42 145.705 419.43 145.635 419.48 145.605L426.32 141.445C426.35 141.425 426.39 141.445 426.41 141.465C426.43 141.495 426.41 141.535 426.39 141.555H426.4Z" fill="#686767"/>
<path d="M412.81 150.015L406.01 154.235C405.92 154.295 405.8 154.265 405.75 154.175C405.7 154.085 405.72 153.965 405.81 153.915L412.65 149.755C412.72 149.715 412.81 149.735 412.86 149.805C412.9 149.875 412.88 149.965 412.81 150.015Z" fill="#686767"/>
<path d="M399.19 158.445L392.38 162.645C392.28 162.705 392.14 162.675 392.08 162.575C392.02 162.475 392.05 162.335 392.15 162.275L398.98 158.095C399.08 158.035 399.2 158.065 399.26 158.165C399.32 158.265 399.29 158.385 399.19 158.445Z" fill="#686767"/>
<path d="M385.57 166.855L378.76 171.055C378.64 171.125 378.49 171.095 378.42 170.975C378.35 170.855 378.38 170.705 378.5 170.635L385.33 166.455C385.44 166.385 385.58 166.425 385.65 166.535C385.72 166.645 385.68 166.785 385.57 166.855Z" fill="#686767"/>
<path d="M371.94 175.255L365.13 179.455C365 179.535 364.83 179.495 364.75 179.365C364.67 179.235 364.71 179.065 364.84 178.985L371.67 174.805C371.79 174.725 371.96 174.765 372.03 174.895C372.1 175.025 372.07 175.185 371.94 175.255Z" fill="#686767"/>
<path d="M358.31 183.665L351.5 187.865C351.36 187.955 351.17 187.905 351.08 187.765C350.99 187.625 351.04 187.435 351.18 187.345L358.01 183.165C358.15 183.085 358.33 183.125 358.41 183.265C358.49 183.405 358.45 183.585 358.31 183.665Z" fill="#686767"/>
<path d="M344.69 192.075L337.88 196.275C337.72 196.375 337.51 196.325 337.42 196.165C337.32 196.005 337.37 195.795 337.53 195.705L344.36 191.525C344.51 191.435 344.71 191.475 344.8 191.635C344.89 191.795 344.85 191.985 344.69 192.075Z" fill="#686767"/>
<path d="M331.06 200.485L324.25 204.685C324.08 204.795 323.85 204.735 323.75 204.565C323.64 204.395 323.7 204.165 323.87 204.065L330.7 199.885C330.87 199.785 331.08 199.835 331.18 200.005C331.28 200.175 331.23 200.385 331.06 200.485Z" fill="#686767"/>
<path d="M317.43 208.875L310.6 213.055C310.43 213.155 310.22 213.105 310.11 212.935C310.01 212.765 310.06 212.555 310.23 212.445L317.04 208.245C317.21 208.135 317.44 208.195 317.55 208.365C317.66 208.535 317.6 208.765 317.43 208.875Z" fill="#686767"/>
<path d="M303.77 217.235L296.94 221.415C296.79 221.505 296.59 221.465 296.49 221.305C296.4 221.155 296.44 220.955 296.6 220.865L303.41 216.665C303.57 216.565 303.78 216.615 303.88 216.775C303.98 216.935 303.93 217.145 303.77 217.245V217.235Z" fill="#686767"/>
<path d="M290.11 225.595L283.28 229.776C283.14 229.856 282.96 229.816 282.88 229.676C282.8 229.536 282.84 229.356 282.98 229.276L289.79 225.075C289.94 224.985 290.13 225.036 290.22 225.176C290.31 225.316 290.26 225.515 290.12 225.595H290.11Z" fill="#686767"/>
<path d="M276.46 233.956L269.63 238.136C269.51 238.216 269.34 238.176 269.27 238.046C269.2 237.916 269.23 237.756 269.36 237.686L276.17 233.486C276.3 233.406 276.47 233.445 276.55 233.575C276.63 233.705 276.59 233.876 276.46 233.956Z" fill="#686767"/>
<path d="M262.8 242.305L255.97 246.485C255.86 246.555 255.72 246.515 255.65 246.405C255.58 246.295 255.62 246.155 255.73 246.085L262.54 241.885C262.66 241.815 262.81 241.845 262.88 241.965C262.95 242.085 262.92 242.235 262.8 242.305Z" fill="#686767"/>
<path d="M249.14 250.665L242.31 254.845C242.21 254.905 242.09 254.875 242.03 254.775C241.97 254.675 242 254.555 242.1 254.495L248.91 250.295C249.01 250.235 249.15 250.265 249.21 250.365C249.27 250.465 249.24 250.605 249.14 250.665Z" fill="#686767"/>
<path d="M235.48 259.025L228.64 263.185C228.57 263.225 228.48 263.205 228.43 263.135C228.39 263.065 228.41 262.975 228.48 262.925L235.28 258.705C235.37 258.645 235.49 258.675 235.54 258.765C235.6 258.855 235.57 258.975 235.48 259.025Z" fill="#686767"/>
<path d="M221.8 267.335L214.96 271.485C214.96 271.485 214.89 271.485 214.87 271.465C214.85 271.435 214.87 271.395 214.89 271.375L221.69 267.145C221.74 267.115 221.81 267.125 221.84 267.175C221.87 267.225 221.86 267.295 221.81 267.325L221.8 267.335Z" fill="#686767"/>
<path d="M208.11 275.645L204.69 277.725L208.09 275.615C208.09 275.615 208.11 275.615 208.12 275.615C208.12 275.625 208.12 275.635 208.12 275.645H208.11Z" fill="#686767"/>
</g>
<path d="M372.49 110.155L369.04 112.175C369.04 112.175 369.02 112.175 369.01 112.175C369.01 112.175 369.01 112.155 369.01 112.145L372.48 110.155H372.49Z" fill="#686767"/>
<path d="M362 116.305L354.96 120.425C354.91 120.455 354.84 120.435 354.81 120.385C354.78 120.335 354.8 120.265 354.85 120.235L361.93 116.185C361.96 116.165 362 116.185 362.02 116.205C362.04 116.235 362.02 116.275 362 116.295V116.305Z" fill="#686767"/>
<path d="M347.92 124.555L340.88 128.675C340.79 128.725 340.67 128.695 340.62 128.605C340.57 128.515 340.6 128.395 340.69 128.345L347.77 124.295C347.84 124.255 347.93 124.275 347.97 124.355C348.01 124.425 347.99 124.515 347.92 124.555Z" fill="#686767"/>
<path d="M333.83 132.775L326.78 136.875C326.68 136.935 326.54 136.905 326.48 136.795C326.42 136.685 326.45 136.555 326.56 136.495L333.63 132.415C333.73 132.355 333.85 132.395 333.91 132.485C333.97 132.585 333.93 132.705 333.84 132.765L333.83 132.775Z" fill="#686767"/>
<path d="M319.73 140.975L312.68 145.075C312.56 145.145 312.41 145.105 312.34 144.985C312.27 144.865 312.31 144.715 312.43 144.645L319.5 140.565C319.61 140.505 319.75 140.535 319.82 140.655C319.88 140.765 319.85 140.905 319.74 140.975H319.73Z" fill="#686767"/>
<path d="M305.62 149.175L298.57 153.275C298.44 153.355 298.27 153.305 298.19 153.175C298.11 153.045 298.16 152.875 298.29 152.795L305.36 148.715C305.49 148.645 305.65 148.685 305.72 148.815C305.79 148.945 305.75 149.105 305.62 149.175Z" fill="#686767"/>
<path d="M291.52 157.385L284.47 161.485C284.32 161.575 284.13 161.525 284.05 161.375C283.97 161.225 284.01 161.035 284.16 160.955L291.23 156.875C291.37 156.795 291.55 156.845 291.63 156.985C291.71 157.125 291.66 157.305 291.52 157.385Z" fill="#686767"/>
<path d="M277.41 165.585L270.36 169.685C270.2 169.775 269.99 169.725 269.9 169.565C269.81 169.405 269.86 169.195 270.02 169.105L277.09 165.025C277.24 164.935 277.44 164.985 277.53 165.145C277.62 165.305 277.57 165.495 277.41 165.585Z" fill="#686767"/>
<path d="M263.31 173.785L256.26 177.885C256.08 177.985 255.86 177.925 255.76 177.755C255.66 177.585 255.72 177.355 255.89 177.255L262.96 173.175C263.13 173.075 263.34 173.135 263.44 173.305C263.54 173.475 263.48 173.685 263.31 173.785Z" fill="#686767"/>
<path d="M249.2 181.975L242.13 186.055C241.96 186.155 241.74 186.095 241.65 185.925C241.55 185.755 241.61 185.545 241.78 185.445L248.83 181.345C249.01 181.245 249.23 181.305 249.33 181.475C249.43 181.645 249.37 181.875 249.2 181.975Z" fill="#686767"/>
<path d="M235.06 190.125L227.99 194.205C227.83 194.295 227.64 194.245 227.55 194.085C227.46 193.935 227.51 193.735 227.67 193.645L234.72 189.545C234.88 189.455 235.09 189.505 235.18 189.665C235.27 189.825 235.22 190.035 235.06 190.125Z" fill="#686767"/>
<path d="M220.93 198.275L213.86 202.355C213.72 202.435 213.54 202.385 213.46 202.245C213.38 202.105 213.43 201.925 213.57 201.845L220.62 197.745C220.77 197.655 220.96 197.705 221.04 197.855C221.13 198.005 221.08 198.195 220.93 198.275Z" fill="#686767"/>
<path d="M206.79 206.425L199.72 210.505C199.59 210.575 199.43 210.535 199.36 210.405C199.29 210.275 199.33 210.115 199.46 210.045L206.51 205.945C206.64 205.865 206.81 205.915 206.89 206.045C206.97 206.175 206.92 206.345 206.79 206.425Z" fill="#686767"/>
<path d="M192.66 214.575L185.59 218.655C185.48 218.715 185.33 218.685 185.27 218.565C185.21 218.445 185.24 218.315 185.36 218.245L192.41 214.145C192.53 214.075 192.68 214.115 192.75 214.235C192.82 214.355 192.78 214.505 192.66 214.575Z" fill="#686767"/>
<path d="M178.53 222.725L171.46 226.805C171.36 226.865 171.24 226.825 171.18 226.725C171.12 226.625 171.16 226.505 171.25 226.445L178.3 222.345C178.4 222.285 178.54 222.315 178.6 222.425C178.66 222.535 178.63 222.665 178.52 222.725H178.53Z" fill="#686767"/>
<path d="M164.39 230.875L157.31 234.925C157.24 234.965 157.15 234.945 157.1 234.865C157.06 234.795 157.08 234.705 157.15 234.655L164.19 230.535C164.28 230.485 164.4 230.515 164.45 230.605C164.5 230.695 164.47 230.815 164.38 230.865L164.39 230.875Z" fill="#686767"/>
<path d="M150.23 238.985L143.15 243.035C143.15 243.035 143.08 243.035 143.06 243.015C143.04 242.995 143.06 242.945 143.08 242.925L150.12 238.795C150.17 238.765 150.24 238.785 150.27 238.835C150.3 238.885 150.28 238.955 150.23 238.985Z" fill="#686767"/>
<path d="M136.07 247.085L132.6 249.075L136.05 247.055C136.05 247.055 136.07 247.055 136.08 247.055C136.08 247.065 136.08 247.075 136.08 247.085H136.07Z" fill="#686767"/>
<path d="M308.37 85.0854C230.77 128.885 143.48 177.576 65.43 220.566C143.02 176.766 230.32 128.085 308.37 85.0854Z" fill="#686767"/>
<path d="M244.26 60.0254L240.77 61.9753C240.77 61.9753 240.75 61.9753 240.74 61.9753C240.73 61.9753 240.74 61.9554 240.74 61.9454L244.25 60.0254H244.26Z" fill="#686767"/>
<path d="M233.6 65.9755L226.43 69.9855C226.38 70.0155 226.31 69.9955 226.28 69.9455C226.25 69.8955 226.27 69.8255 226.32 69.7955L233.53 65.8655C233.56 65.8455 233.6 65.8655 233.62 65.8955C233.64 65.9255 233.62 65.9655 233.6 65.9855V65.9755Z" fill="#686767"/>
<path d="M219.26 73.9954L212.09 77.9954C212 78.0454 211.88 78.0155 211.83 77.9255C211.78 77.8355 211.81 77.7155 211.9 77.6655L219.11 73.7254C219.18 73.6854 219.27 73.7155 219.31 73.7855C219.35 73.8555 219.32 73.9454 219.25 73.9854L219.26 73.9954Z" fill="#686767"/>
<path d="M204.91 81.9753L197.73 85.9553C197.62 86.0153 197.49 85.9753 197.43 85.8653C197.37 85.7553 197.41 85.6254 197.52 85.5654L204.72 81.6053C204.82 81.5553 204.94 81.5854 205 81.6854C205.05 81.7854 205.02 81.9053 204.92 81.9653L204.91 81.9753Z" fill="#686767"/>
<path d="M190.55 89.9355L183.37 93.9155C183.25 93.9855 183.1 93.9355 183.03 93.8155C182.96 93.6955 183.01 93.5454 183.13 93.4754L190.33 89.5154C190.44 89.4554 190.59 89.4954 190.65 89.6054C190.71 89.7154 190.67 89.8555 190.56 89.9255L190.55 89.9355Z" fill="#686767"/>
<path d="M176.18 97.9053L169 101.885C168.87 101.955 168.7 101.915 168.62 101.775C168.54 101.635 168.59 101.475 168.73 101.395L175.93 97.4353C176.06 97.3653 176.22 97.4153 176.29 97.5353C176.36 97.6653 176.31 97.8253 176.19 97.8953L176.18 97.9053Z" fill="#686767"/>
<path d="M161.82 105.865L154.64 109.845C154.49 109.925 154.3 109.875 154.22 109.725C154.14 109.575 154.19 109.386 154.34 109.306L161.54 105.345C161.68 105.265 161.86 105.315 161.94 105.465C162.02 105.605 161.97 105.785 161.83 105.865H161.82Z" fill="#686767"/>
<path d="M147.45 113.825L140.27 117.805C140.11 117.895 139.9 117.835 139.81 117.675C139.72 117.515 139.78 117.305 139.94 117.215L147.14 113.255C147.3 113.165 147.49 113.225 147.58 113.385C147.67 113.545 147.61 113.735 147.45 113.825Z" fill="#686767"/>
<path d="M133.09 121.795L125.91 125.775C125.73 125.875 125.51 125.805 125.41 125.635C125.31 125.455 125.38 125.235 125.55 125.135L132.75 121.175C132.92 121.085 133.13 121.145 133.23 121.315C133.32 121.485 133.26 121.695 133.09 121.795Z" fill="#686767"/>
<path d="M118.71 129.745L111.51 133.705C111.34 133.795 111.12 133.735 111.03 133.565C110.94 133.395 111 133.175 111.17 133.085L118.35 129.105C118.53 129.005 118.75 129.075 118.85 129.245C118.95 129.415 118.88 129.645 118.71 129.745Z" fill="#686767"/>
<path d="M104.32 137.655L97.12 141.615C96.96 141.705 96.77 141.645 96.68 141.485C96.59 141.325 96.65 141.135 96.81 141.045L103.99 137.065C104.15 136.975 104.36 137.035 104.45 137.195C104.54 137.355 104.48 137.565 104.32 137.655Z" fill="#686767"/>
<path d="M89.93 145.565L82.73 149.525C82.59 149.605 82.41 149.555 82.33 149.405C82.25 149.265 82.3 149.085 82.44 149.005L89.62 145.025C89.77 144.945 89.96 144.995 90.04 145.145C90.12 145.295 90.07 145.485 89.92 145.565H89.93Z" fill="#686767"/>
<path d="M75.53 153.475L68.33 157.435C68.2 157.505 68.04 157.455 67.97 157.335C67.9 157.205 67.95 157.045 68.07 156.975L75.25 152.995C75.38 152.925 75.55 152.965 75.63 153.105C75.71 153.245 75.66 153.405 75.52 153.485L75.53 153.475Z" fill="#686767"/>
<path d="M61.14 161.385L53.94 165.345C53.83 165.405 53.68 165.365 53.62 165.255C53.56 165.145 53.5999 164.995 53.7099 164.935L60.89 160.955C61.01 160.885 61.16 160.935 61.23 161.055C61.3 161.175 61.25 161.325 61.13 161.395L61.14 161.385Z" fill="#686767"/>
<path d="M46.74 169.305L39.54 173.265C39.44 173.315 39.32 173.285 39.26 173.185C39.21 173.085 39.24 172.965 39.34 172.905L46.52 168.925C46.63 168.865 46.76 168.905 46.82 169.015C46.88 169.125 46.84 169.255 46.73 169.315L46.74 169.305Z" fill="#686767"/>
<path d="M32.3499 177.215L25.14 181.145C25.07 181.185 24.98 181.155 24.94 181.085C24.9 181.015 24.93 180.925 25 180.885L32.17 176.885C32.26 176.835 32.38 176.865 32.43 176.955C32.48 177.045 32.45 177.165 32.36 177.215H32.3499Z" fill="#686767"/>
<path d="M17.93 185.075L10.72 189.005C10.72 189.005 10.65 189.005 10.63 188.975C10.61 188.945 10.63 188.905 10.66 188.885L17.83 184.875C17.88 184.845 17.95 184.865 17.98 184.915C18.01 184.965 17.99 185.035 17.94 185.065L17.93 185.075Z" fill="#686767"/>
<path d="M3.51001 192.945L0 194.855L3.48999 192.905C3.48999 192.905 3.50996 192.905 3.51996 192.905C3.51996 192.915 3.51996 192.925 3.51996 192.935L3.51001 192.945Z" fill="#686767"/>
</g>
<path d="M158.5 230.285L149.1 224.835C147.75 224.055 146.91 222.605 146.91 221.045V96.4053C146.91 94.6253 147.86 92.9752 149.4 92.0752L302.17 1.67532C303.86 0.675323 305.84 0.295255 307.78 0.605255L323.31 3.04532" fill="#0CA453"/>
<path d="M158.5 230.285L149.1 224.835C147.75 224.055 146.91 222.605 146.91 221.045V96.4053C146.91 94.6253 147.86 92.9752 149.4 92.0752L302.17 1.67532C303.86 0.675323 305.84 0.295255 307.78 0.605255L323.31 3.04532" stroke="#080101" stroke-miterlimit="10"/>
<path d="M163.14 232.475L152.55 226.195C151.2 225.415 150.86 225.145 150.86 223.585V98.9455C150.86 97.1655 151.81 95.5154 153.35 94.6154L306.12 4.21536C307.81 3.21536 310.71 1.5854 312.65 1.8854L322.37 3.54544" fill="white"/>
<path d="M158.5 230.285L322.23 135.605C324.41 134.345 325.75 132.015 325.75 129.495V6.93532C325.75 3.88532 322.42 2.01524 319.81 3.60524L160.9 100.575C159.41 101.485 158.5 103.105 158.5 104.855V230.285Z" fill="white" stroke="#A2A2A2" stroke-miterlimit="10"/>
<path d="M325.75 20.1553L158.5 123.575" stroke="#A2A2A2" stroke-miterlimit="10"/>
<path d="M173.994 107.34C174.883 105.055 174.009 102.583 172.042 101.818C170.076 101.054 167.762 102.287 166.873 104.573C165.985 106.858 166.859 109.331 168.825 110.095C170.792 110.859 173.106 109.626 173.994 107.34Z" fill="#0CA453" stroke="#080101" stroke-miterlimit="10"/>
<path d="M188.491 98.5993C189.379 96.3137 188.506 93.8413 186.539 93.077C184.573 92.3127 182.259 93.5459 181.37 95.8315C180.482 98.1171 181.356 100.59 183.322 101.354C185.289 102.118 187.603 100.885 188.491 98.5993Z" fill="#0CA453" stroke="#080101" stroke-miterlimit="10"/>
<path d="M202.123 89.8588C203.011 87.5733 202.137 85.1009 200.171 84.3366C198.204 83.5723 195.89 84.8055 195.002 87.091C194.113 89.3766 194.987 91.8491 196.954 92.6134C198.92 93.3777 201.234 92.1444 202.123 89.8588Z" fill="#0CA453" stroke="#080101" stroke-miterlimit="10"/>
<path d="M174.36 140.335L287.89 74.2051" stroke="#A2A2A2" stroke-miterlimit="10" stroke-linecap="round"/>
<path d="M173.86 173.595L273.08 116.525" stroke="#A2A2A2" stroke-miterlimit="10" stroke-linecap="round"/>
<path d="M324.04 60.7053L360.32 122.305C362.7 126.345 361.33 131.945 357.45 133.965L297.11 173.925L280.62 170.945C277.79 169.235 276.06 165.255 277.41 161.155L312.31 55.0354C312.94 53.1054 314.38 51.9754 315.9 51.7554L329.2 53.0354L324.03 60.6854L324.04 60.7053Z" fill="#DF5B5E" stroke="#444444" stroke-miterlimit="10"/>
<path d="M322.99 122.045C322.57 121.135 322.82 119.675 322.82 118.665C322.82 115.085 322.72 111.515 322.63 107.925C322.48 101.925 322.32 95.9354 322.17 89.9354C322.09 86.9754 322.02 84.0054 321.94 81.0454C321.9 79.3554 322.8 77.8154 324.18 77.2454C326.42 76.3154 328.74 78.3054 328.62 81.0654C328.5 83.9254 328.37 86.7954 328.25 89.6554C328 95.4454 327.75 101.235 327.5 107.025C327.3 111.545 327.11 116.075 326.91 120.595C326.84 122.145 326.46 122.955 325.14 123.295C324.75 123.395 324.32 123.395 323.96 123.195C323.58 122.985 323.32 122.585 323.07 122.205C323.04 122.155 323.01 122.105 322.99 122.045Z" fill="#0CA453"/>
<path d="M326.04 56.2353L291.14 162.355C288.98 168.915 294.7 175.175 300.22 172.285L371.18 135.155C375.05 133.125 376.43 127.535 374.05 123.495L333.77 55.1153C331.78 51.7253 327.31 52.3753 326.04 56.2353Z" fill="white" stroke="black" stroke-width="0.75" stroke-miterlimit="10"/>
<path d="M327.96 123.005C327.59 122.185 327.8 120.895 327.8 120.015C327.79 116.845 327.68 113.675 327.58 110.505C327.41 105.195 327.25 99.8754 327.08 94.5654C327 91.9354 326.91 89.3154 326.83 86.6854C326.78 85.1854 327.58 83.8353 328.8 83.3453C330.78 82.5553 332.84 84.3554 332.75 86.7854C332.65 89.3154 332.56 91.8554 332.46 94.3854C332.27 99.5054 332.08 104.635 331.88 109.755C331.73 113.755 331.58 117.765 331.43 121.765C331.38 123.145 331.04 123.845 329.88 124.135C329.53 124.225 329.16 124.215 328.83 124.025C328.5 123.835 328.26 123.475 328.03 123.135C328 123.095 327.98 123.045 327.95 122.995L327.96 123.005Z" fill="#E05A5E"/>
<path d="M334.615 136.404C334.767 132.778 333.039 129.761 330.755 129.665C328.47 129.569 326.495 132.43 326.342 136.055C326.189 139.681 327.918 142.698 330.202 142.794C332.487 142.89 334.462 140.029 334.615 136.404Z" fill="#E05A5E"/>
</svg>
