<svg width="466" height="293" viewBox="0 0 466 293" fill="none" xmlns="http://www.w3.org/2000/svg">
<g opacity="0.51">
<path d="M81.8301 113.695C188.3 148.325 307.57 187.655 413.75 223.165C307.28 188.535 188.01 149.205 81.8301 113.695Z" fill="#686767"/>
<path d="M162.51 78.4753L173.95 82.0853L173.92 82.1853L162.51 78.4753Z" fill="#686767"/>
<path d="M185.39 85.6953L196.84 89.3053L196.74 89.6152L185.33 85.9053L185.39 85.6953Z" fill="#686767"/>
<path d="M208.28 92.9353L219.71 96.5853L219.58 96.9952L208.15 93.3153L208.28 92.9353Z" fill="#686767"/>
<path d="M231.14 100.225L242.57 103.875L242.42 104.355L231 100.675L231.14 100.225Z" fill="#686767"/>
<path d="M254.01 107.515L265.44 111.165L265.26 111.725L253.84 108.035L254.01 107.515Z" fill="#686767"/>
<path d="M276.87 114.805L288.31 118.455L288.1 119.085L276.68 115.405L276.87 114.805Z" fill="#686767"/>
<path d="M299.74 122.095L311.17 125.745L310.95 126.445L299.53 122.765L299.74 122.095Z" fill="#686767"/>
<path d="M322.6 129.415L334.02 133.095L333.81 133.745L322.38 130.105L322.6 129.415Z" fill="#686767"/>
<path d="M345.44 136.775L356.86 140.455L356.68 141.035L345.24 137.395L345.44 136.775Z" fill="#686767"/>
<path d="M368.28 144.135L379.7 147.815L379.54 148.325L368.11 144.685L368.28 144.135Z" fill="#686767"/>
<path d="M391.13 151.505L402.55 155.185L402.41 155.615L390.97 151.975L391.13 151.505Z" fill="#686767"/>
<path d="M413.97 158.865L425.39 162.545L425.27 162.905L413.84 159.265L413.97 158.865Z" fill="#686767"/>
<path d="M436.8 166.255L448.21 169.975L448.16 170.135L436.72 166.525L436.8 166.255Z" fill="#686767"/>
<path d="M459.62 173.685L465.45 175.585L459.6 173.745L459.62 173.685Z" fill="#686767"/>
<path d="M4.14001 156.765L11.77 159.165C11.77 159.165 11.8 159.185 11.79 159.205C11.79 159.225 11.77 159.235 11.75 159.225L4.14001 156.765Z" fill="#686767"/>
<path d="M19.4 161.565L27.03 163.965C27.03 163.965 27.1101 164.035 27.0901 164.085C27.0701 164.135 27.0201 164.165 26.9701 164.145L19.36 161.685C19.36 161.685 19.31 161.635 19.32 161.605C19.33 161.575 19.37 161.555 19.4 161.565Z" fill="#686767"/>
<path d="M34.67 166.365L42.3 168.765C42.38 168.795 42.43 168.875 42.4 168.965C42.37 169.045 42.29 169.095 42.2 169.065L34.5901 166.605C34.5201 166.585 34.49 166.515 34.51 166.445C34.53 166.375 34.6 166.345 34.67 166.365Z" fill="#686767"/>
<path d="M49.93 171.165L57.56 173.585C57.66 173.615 57.72 173.735 57.69 173.835C57.66 173.935 57.55 173.995 57.44 173.965L49.82 171.525C49.72 171.495 49.6701 171.385 49.7001 171.285C49.7301 171.185 49.84 171.135 49.94 171.165H49.93Z" fill="#686767"/>
<path d="M65.1801 176.005L72.8101 178.426C72.9301 178.466 72.9901 178.586 72.9501 178.706C72.9101 178.826 72.79 178.886 72.67 178.846L65.0501 176.406C64.9401 176.366 64.88 176.256 64.91 176.146C64.95 176.036 65.06 175.975 65.17 176.005H65.1801Z" fill="#686767"/>
<path d="M80.43 180.846L88.06 183.265C88.19 183.305 88.26 183.446 88.22 183.566C88.18 183.696 88.04 183.766 87.92 183.726L80.3 181.285C80.18 181.245 80.11 181.115 80.15 180.995C80.19 180.875 80.32 180.806 80.44 180.846H80.43Z" fill="#686767"/>
<path d="M95.6801 185.685L103.31 188.105C103.45 188.145 103.52 188.295 103.48 188.435C103.44 188.575 103.29 188.645 103.15 188.605L95.5301 186.165C95.4001 186.125 95.32 185.985 95.37 185.845C95.42 185.705 95.5501 185.635 95.6901 185.685H95.6801Z" fill="#686767"/>
<path d="M110.93 190.525L118.56 192.945C118.71 192.995 118.79 193.155 118.75 193.305C118.7 193.455 118.54 193.535 118.39 193.495L110.77 191.055C110.63 191.005 110.55 190.855 110.59 190.715C110.63 190.575 110.79 190.495 110.93 190.535V190.525Z" fill="#686767"/>
<path d="M126.18 195.365L133.81 197.785C133.97 197.835 134.06 198.005 134.01 198.165C133.96 198.325 133.79 198.415 133.63 198.365L126.01 195.925C125.85 195.875 125.77 195.705 125.82 195.555C125.87 195.395 126.04 195.315 126.19 195.365H126.18Z" fill="#686767"/>
<path d="M141.43 200.205L149.06 202.625C149.23 202.675 149.33 202.865 149.27 203.035C149.22 203.205 149.03 203.305 148.86 203.245L141.24 200.805C141.07 200.755 140.98 200.575 141.03 200.405C141.08 200.235 141.26 200.145 141.43 200.195V200.205Z" fill="#686767"/>
<path d="M156.68 205.046L164.31 207.466C164.49 207.526 164.6 207.716 164.54 207.906C164.48 208.086 164.29 208.195 164.1 208.135L156.48 205.696C156.3 205.636 156.2 205.445 156.26 205.265C156.32 205.085 156.51 204.986 156.68 205.046Z" fill="#686767"/>
<path d="M171.94 209.875L179.57 212.295C179.77 212.355 179.87 212.565 179.81 212.765C179.75 212.965 179.54 213.065 179.34 213.005L171.72 210.565C171.53 210.505 171.43 210.305 171.49 210.115C171.55 209.925 171.75 209.825 171.94 209.885V209.875Z" fill="#686767"/>
<path d="M187.18 214.735L194.8 217.175C194.99 217.235 195.09 217.435 195.03 217.625C194.97 217.815 194.77 217.915 194.58 217.855L186.95 215.435C186.76 215.375 186.65 215.165 186.71 214.975C186.77 214.785 186.98 214.675 187.17 214.735H187.18Z" fill="#686767"/>
<path d="M202.42 219.615L210.04 222.055C210.22 222.115 210.31 222.305 210.26 222.475C210.2 222.655 210.02 222.745 209.84 222.695L202.21 220.275C202.03 220.215 201.93 220.025 201.98 219.835C202.04 219.655 202.23 219.555 202.42 219.605V219.615Z" fill="#686767"/>
<path d="M217.66 224.495L225.28 226.935C225.45 226.985 225.54 227.165 225.48 227.335C225.43 227.505 225.25 227.595 225.09 227.535L217.46 225.115C217.29 225.065 217.19 224.875 217.25 224.705C217.3 224.535 217.49 224.435 217.66 224.495Z" fill="#686767"/>
<path d="M232.89 229.375L240.51 231.815C240.66 231.865 240.75 232.025 240.7 232.185C240.65 232.335 240.49 232.425 240.33 232.375L232.7 229.955C232.54 229.905 232.45 229.735 232.5 229.575C232.55 229.415 232.72 229.325 232.88 229.375H232.89Z" fill="#686767"/>
<path d="M248.13 234.255L255.75 236.695C255.89 236.745 255.97 236.895 255.93 237.035C255.88 237.175 255.73 237.255 255.59 237.215L247.96 234.795C247.81 234.745 247.73 234.585 247.78 234.445C247.83 234.305 247.99 234.215 248.13 234.265V234.255Z" fill="#686767"/>
<path d="M263.37 239.136L270.99 241.576C271.12 241.616 271.19 241.756 271.15 241.886C271.11 242.016 270.97 242.086 270.84 242.046L263.21 239.626C263.07 239.586 263 239.436 263.04 239.296C263.08 239.156 263.23 239.086 263.37 239.126V239.136Z" fill="#686767"/>
<path d="M278.61 244.016L286.23 246.456C286.35 246.496 286.42 246.626 286.38 246.746C286.34 246.866 286.21 246.936 286.09 246.896L278.46 244.476C278.33 244.436 278.27 244.306 278.3 244.176C278.33 244.046 278.47 243.986 278.6 244.016H278.61Z" fill="#686767"/>
<path d="M293.85 248.895L301.47 251.335C301.58 251.365 301.64 251.485 301.6 251.595C301.57 251.705 301.45 251.765 301.34 251.725L293.71 249.305C293.6 249.265 293.53 249.145 293.57 249.035C293.61 248.925 293.73 248.855 293.84 248.895H293.85Z" fill="#686767"/>
<path d="M309.08 253.776L316.7 256.226C316.79 256.256 316.84 256.356 316.81 256.446C316.78 256.536 316.68 256.596 316.59 256.556L308.96 254.146C308.86 254.116 308.8 254.006 308.83 253.906C308.86 253.806 308.97 253.746 309.07 253.776H309.08Z" fill="#686767"/>
<path d="M324.31 258.676L331.92 261.135C331.98 261.155 332.01 261.215 331.99 261.275C331.97 261.335 331.91 261.366 331.85 261.346L324.22 258.946C324.14 258.926 324.1 258.835 324.12 258.765C324.14 258.685 324.23 258.645 324.3 258.665L324.31 258.676Z" fill="#686767"/>
<path d="M339.54 263.595L347.15 266.055C347.15 266.055 347.19 266.095 347.18 266.115C347.18 266.145 347.14 266.155 347.12 266.145L339.49 263.745C339.49 263.745 339.42 263.685 339.44 263.645C339.45 263.605 339.5 263.575 339.54 263.595Z" fill="#686767"/>
<path d="M354.76 268.515L359.57 270.075L354.74 268.555C354.74 268.555 354.72 268.545 354.73 268.535C354.73 268.525 354.74 268.515 354.76 268.525V268.515Z" fill="#686767"/>
<g opacity="0.61">
<path d="M436.6 142.715L433.2 144.825C433.2 144.825 433.18 144.825 433.17 144.825C433.17 144.825 433.17 144.805 433.17 144.795L436.59 142.715H436.6Z" fill="#686767"/>
<path d="M426.4 149.055L419.6 153.285C419.55 153.315 419.48 153.305 419.45 153.255C419.42 153.205 419.43 153.135 419.48 153.105L426.32 148.945C426.35 148.925 426.39 148.945 426.41 148.965C426.43 148.995 426.41 149.035 426.39 149.055H426.4Z" fill="#686767"/>
<path d="M412.81 157.515L406.01 161.745C405.92 161.805 405.8 161.775 405.75 161.685C405.7 161.595 405.72 161.475 405.81 161.425L412.65 157.265C412.72 157.225 412.81 157.245 412.86 157.315C412.9 157.385 412.88 157.475 412.81 157.525V157.515Z" fill="#686767"/>
<path d="M399.19 165.945L392.38 170.145C392.28 170.205 392.14 170.175 392.08 170.075C392.02 169.975 392.05 169.835 392.15 169.775L398.98 165.595C399.08 165.535 399.2 165.565 399.26 165.665C399.32 165.765 399.29 165.885 399.19 165.945Z" fill="#686767"/>
<path d="M385.57 174.345L378.76 178.545C378.64 178.615 378.49 178.585 378.42 178.465C378.35 178.345 378.38 178.195 378.5 178.125L385.33 173.945C385.44 173.875 385.58 173.915 385.65 174.025C385.72 174.135 385.68 174.275 385.57 174.345Z" fill="#686767"/>
<path d="M371.94 182.755L365.13 186.955C365 187.035 364.83 186.995 364.75 186.865C364.67 186.735 364.71 186.565 364.84 186.485L371.67 182.305C371.79 182.225 371.96 182.265 372.03 182.395C372.1 182.525 372.07 182.685 371.94 182.755Z" fill="#686767"/>
<path d="M358.31 191.165L351.5 195.365C351.36 195.455 351.17 195.405 351.08 195.265C350.99 195.125 351.04 194.935 351.18 194.845L358.01 190.665C358.15 190.585 358.33 190.625 358.41 190.765C358.49 190.905 358.45 191.085 358.31 191.165Z" fill="#686767"/>
<path d="M344.69 199.575L337.88 203.775C337.72 203.875 337.51 203.825 337.42 203.665C337.32 203.505 337.37 203.295 337.53 203.205L344.36 199.025C344.51 198.935 344.71 198.975 344.8 199.135C344.89 199.285 344.85 199.485 344.69 199.575Z" fill="#686767"/>
<path d="M331.06 207.975L324.25 212.175C324.08 212.285 323.85 212.225 323.75 212.055C323.64 211.885 323.7 211.655 323.87 211.555L330.7 207.375C330.87 207.275 331.08 207.325 331.18 207.495C331.28 207.665 331.23 207.875 331.06 207.975Z" fill="#686767"/>
<path d="M317.43 216.375L310.6 220.555C310.43 220.655 310.22 220.605 310.11 220.435C310 220.265 310.06 220.055 310.23 219.945L317.04 215.745C317.21 215.635 317.44 215.695 317.55 215.865C317.66 216.035 317.6 216.265 317.43 216.375Z" fill="#686767"/>
<path d="M303.77 224.735L296.94 228.915C296.79 229.005 296.59 228.965 296.49 228.805C296.4 228.655 296.44 228.455 296.6 228.365L303.41 224.165C303.57 224.065 303.78 224.115 303.88 224.275C303.98 224.435 303.93 224.645 303.77 224.745V224.735Z" fill="#686767"/>
<path d="M290.11 233.095L283.28 237.275C283.14 237.355 282.96 237.315 282.88 237.175C282.8 237.035 282.84 236.855 282.98 236.775L289.79 232.575C289.94 232.485 290.13 232.535 290.22 232.675C290.31 232.815 290.26 233.015 290.12 233.105L290.11 233.095Z" fill="#686767"/>
<path d="M276.46 241.445L269.63 245.625C269.51 245.705 269.34 245.665 269.27 245.535C269.2 245.405 269.23 245.245 269.36 245.175L276.17 240.975C276.3 240.895 276.47 240.935 276.55 241.065C276.63 241.195 276.59 241.365 276.46 241.445Z" fill="#686767"/>
<path d="M262.8 249.805L255.97 253.985C255.86 254.055 255.72 254.015 255.65 253.905C255.58 253.795 255.62 253.655 255.73 253.585L262.54 249.385C262.66 249.315 262.81 249.345 262.88 249.465C262.95 249.585 262.92 249.735 262.8 249.805Z" fill="#686767"/>
<path d="M249.14 258.165L242.31 262.345C242.21 262.405 242.09 262.375 242.03 262.275C241.97 262.175 242 262.055 242.1 261.995L248.91 257.795C249.01 257.735 249.15 257.765 249.21 257.865C249.27 257.965 249.24 258.105 249.14 258.165Z" fill="#686767"/>
<path d="M235.48 266.525L228.64 270.685C228.57 270.725 228.48 270.705 228.43 270.635C228.39 270.565 228.41 270.475 228.48 270.425L235.28 266.205C235.37 266.145 235.49 266.175 235.54 266.265C235.6 266.355 235.57 266.475 235.48 266.525Z" fill="#686767"/>
<path d="M221.8 274.835L214.96 278.985C214.96 278.985 214.89 278.985 214.87 278.965C214.85 278.935 214.87 278.895 214.89 278.875L221.69 274.645C221.74 274.615 221.81 274.625 221.84 274.675C221.87 274.725 221.86 274.795 221.81 274.825L221.8 274.835Z" fill="#686767"/>
<path d="M208.11 283.145L204.69 285.225L208.09 283.115C208.09 283.115 208.11 283.115 208.12 283.115C208.12 283.125 208.12 283.135 208.12 283.145H208.11Z" fill="#686767"/>
</g>
<path d="M372.49 117.645L369.04 119.665C369.04 119.665 369.02 119.665 369.01 119.665C369.01 119.655 369.01 119.645 369.01 119.635L372.48 117.645H372.49Z" fill="#686767"/>
<path d="M362 123.795L354.96 127.915C354.91 127.945 354.84 127.925 354.81 127.875C354.78 127.825 354.8 127.755 354.85 127.725L361.93 123.675C361.96 123.655 362 123.675 362.02 123.695C362.04 123.725 362.02 123.765 362 123.785V123.795Z" fill="#686767"/>
<path d="M347.92 132.045L340.88 136.165C340.79 136.215 340.67 136.185 340.62 136.095C340.57 136.005 340.6 135.885 340.69 135.835L347.77 131.775C347.84 131.735 347.93 131.755 347.97 131.835C348.01 131.905 347.99 131.995 347.92 132.035V132.045Z" fill="#686767"/>
<path d="M333.83 140.275L326.78 144.375C326.68 144.435 326.54 144.395 326.48 144.295C326.42 144.195 326.45 144.055 326.56 143.995L333.63 139.915C333.73 139.855 333.85 139.895 333.91 139.995C333.97 140.095 333.93 140.215 333.84 140.275H333.83Z" fill="#686767"/>
<path d="M319.72 148.475L312.67 152.575C312.55 152.645 312.4 152.605 312.33 152.485C312.26 152.365 312.3 152.215 312.42 152.145L319.49 148.065C319.6 148.005 319.74 148.035 319.81 148.155C319.88 148.275 319.84 148.405 319.73 148.475H319.72Z" fill="#686767"/>
<path d="M305.62 156.675L298.57 160.775C298.44 160.855 298.27 160.805 298.19 160.675C298.11 160.545 298.16 160.375 298.29 160.295L305.36 156.215C305.49 156.145 305.65 156.185 305.72 156.315C305.79 156.445 305.75 156.605 305.62 156.675Z" fill="#686767"/>
<path d="M291.52 164.875L284.47 168.975C284.32 169.065 284.13 169.015 284.05 168.865C283.97 168.715 284.01 168.535 284.16 168.445L291.23 164.365C291.37 164.285 291.55 164.335 291.63 164.475C291.71 164.615 291.66 164.795 291.52 164.875Z" fill="#686767"/>
<path d="M277.41 173.085L270.36 177.185C270.2 177.275 269.99 177.225 269.9 177.065C269.81 176.905 269.86 176.695 270.02 176.605L277.09 172.525C277.24 172.435 277.44 172.485 277.53 172.645C277.62 172.805 277.57 172.995 277.41 173.085Z" fill="#686767"/>
<path d="M263.31 181.285L256.26 185.385C256.08 185.485 255.86 185.425 255.76 185.255C255.66 185.075 255.72 184.855 255.89 184.755L262.96 180.675C263.13 180.575 263.34 180.635 263.44 180.805C263.54 180.975 263.48 181.185 263.31 181.285Z" fill="#686767"/>
<path d="M249.2 189.475L242.13 193.555C241.96 193.655 241.74 193.595 241.65 193.425C241.55 193.255 241.61 193.045 241.78 192.945L248.83 188.845C249.01 188.745 249.23 188.805 249.33 188.975C249.43 189.145 249.37 189.375 249.2 189.475Z" fill="#686767"/>
<path d="M235.06 197.625L227.99 201.705C227.84 201.795 227.64 201.745 227.55 201.585C227.46 201.425 227.51 201.235 227.67 201.145L234.72 197.045C234.88 196.955 235.09 197.005 235.18 197.165C235.27 197.325 235.22 197.535 235.06 197.625Z" fill="#686767"/>
<path d="M220.93 205.775L213.86 209.855C213.72 209.935 213.54 209.885 213.46 209.745C213.38 209.605 213.43 209.425 213.57 209.345L220.62 205.245C220.77 205.155 220.96 205.205 221.04 205.355C221.13 205.505 221.08 205.695 220.93 205.775Z" fill="#686767"/>
<path d="M206.79 213.925L199.72 218.005C199.59 218.075 199.43 218.035 199.36 217.905C199.29 217.775 199.33 217.615 199.46 217.545L206.51 213.445C206.64 213.365 206.81 213.415 206.89 213.545C206.97 213.675 206.92 213.845 206.79 213.925Z" fill="#686767"/>
<path d="M192.66 222.075L185.59 226.155C185.48 226.215 185.33 226.185 185.27 226.065C185.21 225.955 185.24 225.815 185.36 225.745L192.41 221.645C192.53 221.575 192.68 221.615 192.75 221.735C192.82 221.855 192.78 222.005 192.66 222.075Z" fill="#686767"/>
<path d="M178.53 230.225L171.46 234.305C171.36 234.365 171.24 234.325 171.18 234.225C171.12 234.125 171.16 234.005 171.25 233.945L178.3 229.845C178.4 229.785 178.54 229.815 178.6 229.925C178.66 230.025 178.63 230.165 178.52 230.225H178.53Z" fill="#686767"/>
<path d="M164.39 238.375L157.31 242.425C157.24 242.465 157.15 242.445 157.1 242.365C157.06 242.295 157.08 242.205 157.15 242.155L164.19 238.035C164.28 237.985 164.4 238.015 164.45 238.105C164.5 238.195 164.47 238.315 164.38 238.365L164.39 238.375Z" fill="#686767"/>
<path d="M150.23 246.486L143.15 250.536C143.15 250.536 143.08 250.536 143.06 250.516C143.04 250.486 143.06 250.446 143.08 250.426L150.12 246.296C150.17 246.266 150.24 246.286 150.27 246.336C150.3 246.386 150.28 246.456 150.23 246.486Z" fill="#686767"/>
<path d="M136.07 254.585L132.6 256.575L136.05 254.555C136.05 254.555 136.07 254.555 136.08 254.555C136.08 254.555 136.08 254.575 136.08 254.585H136.07Z" fill="#686767"/>
<path d="M308.37 92.5852C230.77 136.385 143.48 185.065 65.4301 228.065C143.02 184.265 230.32 135.585 308.37 92.5852Z" fill="#686767"/>
<path d="M244.26 67.5151L240.77 69.4652C240.77 69.4652 240.75 69.4652 240.74 69.4652C240.74 69.4552 240.74 69.4452 240.74 69.4352L244.25 67.5151H244.26Z" fill="#686767"/>
<path d="M233.6 73.4753L226.43 77.4853C226.38 77.5153 226.31 77.4953 226.28 77.4453C226.25 77.3953 226.27 77.3253 226.32 77.2953L233.53 73.3652C233.56 73.3452 233.6 73.3653 233.62 73.3953C233.64 73.4253 233.62 73.4653 233.59 73.4853L233.6 73.4753Z" fill="#686767"/>
<path d="M219.26 81.4852L212.09 85.4852C212 85.5352 211.88 85.5051 211.83 85.4151C211.78 85.3251 211.81 85.2051 211.9 85.1551L219.11 81.2252C219.18 81.1852 219.27 81.2151 219.31 81.2851C219.35 81.3551 219.32 81.4452 219.25 81.4852H219.26Z" fill="#686767"/>
<path d="M204.91 89.4754L197.73 93.4554C197.62 93.5154 197.49 93.4753 197.43 93.3753C197.37 93.2653 197.41 93.1354 197.52 93.0754L204.72 89.1153C204.82 89.0653 204.94 89.0954 205 89.1954C205.06 89.2954 205.02 89.4154 204.92 89.4754H204.91Z" fill="#686767"/>
<path d="M190.55 97.4352L183.37 101.415C183.25 101.485 183.1 101.435 183.03 101.315C182.96 101.195 183.01 101.045 183.13 100.975L190.33 97.0152C190.44 96.9552 190.59 96.9952 190.65 97.1052C190.71 97.2152 190.67 97.3552 190.56 97.4252L190.55 97.4352Z" fill="#686767"/>
<path d="M176.18 105.395L169 109.375C168.87 109.445 168.7 109.405 168.62 109.265C168.54 109.125 168.59 108.965 168.73 108.885L175.93 104.925C176.06 104.855 176.22 104.905 176.29 105.025C176.36 105.155 176.31 105.315 176.19 105.385L176.18 105.395Z" fill="#686767"/>
<path d="M161.81 113.365L154.63 117.345C154.48 117.425 154.29 117.375 154.21 117.225C154.13 117.075 154.18 116.885 154.33 116.805L161.53 112.845C161.67 112.765 161.85 112.815 161.93 112.965C162.01 113.105 161.96 113.285 161.82 113.365H161.81Z" fill="#686767"/>
<path d="M147.45 121.325L140.27 125.305C140.11 125.395 139.9 125.335 139.81 125.175C139.72 125.015 139.78 124.805 139.94 124.715L147.14 120.755C147.3 120.665 147.49 120.725 147.58 120.885C147.67 121.045 147.61 121.235 147.45 121.325Z" fill="#686767"/>
<path d="M133.08 129.285L125.9 133.265C125.72 133.365 125.5 133.295 125.4 133.125C125.3 132.945 125.37 132.725 125.54 132.625L132.74 128.665C132.91 128.575 133.12 128.635 133.22 128.805C133.32 128.975 133.25 129.185 133.08 129.285Z" fill="#686767"/>
<path d="M118.71 137.245L111.51 141.205C111.34 141.295 111.12 141.235 111.03 141.065C110.94 140.895 111 140.675 111.17 140.585L118.35 136.605C118.53 136.505 118.75 136.575 118.85 136.745C118.95 136.925 118.88 137.145 118.71 137.245Z" fill="#686767"/>
<path d="M104.32 145.155L97.12 149.115C96.96 149.205 96.77 149.145 96.68 148.985C96.59 148.825 96.65 148.635 96.81 148.545L103.99 144.565C104.15 144.475 104.36 144.535 104.45 144.695C104.54 144.855 104.48 145.065 104.32 145.155Z" fill="#686767"/>
<path d="M89.9301 153.065L82.73 157.025C82.59 157.105 82.4101 157.055 82.3301 156.905C82.2501 156.765 82.3001 156.585 82.4501 156.505L89.63 152.525C89.78 152.445 89.9701 152.495 90.0501 152.645C90.1301 152.795 90.0801 152.985 89.9301 153.065Z" fill="#686767"/>
<path d="M75.53 160.975L68.3301 164.935C68.2001 165.005 68.0401 164.955 67.9701 164.835C67.9001 164.705 67.9501 164.545 68.0701 164.475L75.25 160.495C75.38 160.425 75.55 160.465 75.63 160.605C75.71 160.745 75.66 160.905 75.52 160.985L75.53 160.975Z" fill="#686767"/>
<path d="M61.14 168.885L53.9401 172.845C53.8301 172.905 53.68 172.865 53.62 172.755C53.56 172.645 53.6001 172.495 53.7101 172.435L60.89 168.455C61.01 168.385 61.16 168.435 61.23 168.555C61.3 168.675 61.25 168.825 61.13 168.895L61.14 168.885Z" fill="#686767"/>
<path d="M46.74 176.795L39.5401 180.755C39.4401 180.805 39.3201 180.775 39.2601 180.675C39.2101 180.575 39.2401 180.455 39.3401 180.395L46.5201 176.415C46.6301 176.355 46.7601 176.395 46.8201 176.505C46.8801 176.615 46.84 176.745 46.73 176.805L46.74 176.795Z" fill="#686767"/>
<path d="M32.3501 184.715L25.14 188.645C25.07 188.685 24.98 188.655 24.94 188.585C24.9 188.515 24.93 188.425 25 188.385L32.17 184.385C32.26 184.335 32.38 184.365 32.43 184.455C32.48 184.545 32.45 184.665 32.36 184.715H32.3501Z" fill="#686767"/>
<path d="M17.93 192.575L10.7201 196.505C10.7201 196.505 10.65 196.505 10.63 196.475C10.61 196.445 10.63 196.405 10.66 196.385L17.8301 192.375C17.8801 192.345 17.95 192.365 17.98 192.415C18.01 192.465 17.9901 192.535 17.9401 192.565L17.93 192.575Z" fill="#686767"/>
<path d="M3.51001 200.435L0 202.345L3.48999 200.395C3.48999 200.395 3.51002 200.395 3.52002 200.395C3.52002 200.405 3.52002 200.415 3.52002 200.425L3.51001 200.435Z" fill="#686767"/>
</g>
<path d="M158.5 237.785L149.1 232.335C147.75 231.555 146.91 230.105 146.91 228.545V103.905C146.91 102.125 147.86 100.475 149.4 99.5752L302.17 9.17522C303.86 8.17522 305.84 7.79527 307.78 8.10527L323.31 10.5452" fill="#0CA453"/>
<path d="M158.5 237.785L149.1 232.335C147.75 231.555 146.91 230.105 146.91 228.545V103.905C146.91 102.125 147.86 100.475 149.4 99.5752L302.17 9.17522C303.86 8.17522 305.84 7.79527 307.78 8.10527L323.31 10.5452" stroke="#080101" stroke-miterlimit="10"/>
<path d="M159 238.5L152.55 234.695C151.2 233.915 150.86 233.645 150.86 232.085V106.445C150.86 104.665 151.81 103.015 153.35 102.115L306.12 11.7152C307.81 10.7152 310.71 9.08516 312.65 9.38516L322.37 11.0452" fill="white"/>
<path d="M158.5 237.043C158.5 237.815 159.338 238.296 160.005 237.906L322.23 143.105C324.41 141.845 325.75 139.515 325.75 136.995V14.4352C325.75 11.3852 322.42 9.51526 319.81 11.1053L160.9 108.075C159.41 108.985 158.5 110.605 158.5 112.355V237.043Z" fill="white" stroke="#A2A2A2" stroke-miterlimit="10"/>
<path d="M325.75 27.655L158.5 131.075" stroke="#A2A2A2" stroke-miterlimit="10"/>
<path d="M173.973 114.828C174.861 112.542 173.987 110.07 172.021 109.306C170.054 108.541 167.74 109.774 166.852 112.06C165.963 114.346 166.837 116.818 168.804 117.582C170.77 118.347 173.084 117.113 173.973 114.828Z" fill="#0CA453" stroke="#080101" stroke-miterlimit="10"/>
<path d="M188.48 106.087C189.368 103.801 188.494 101.329 186.527 100.564C184.561 99.8 182.247 101.033 181.359 103.319C180.47 105.604 181.344 108.077 183.31 108.841C185.277 109.605 187.591 108.372 188.48 106.087Z" fill="#0CA453" stroke="#080101" stroke-miterlimit="10"/>
<path d="M202.101 97.3561C202.989 95.0706 202.115 92.5982 200.149 91.8339C198.183 91.0696 195.868 92.3028 194.98 94.5884C194.092 96.8739 194.966 99.3464 196.932 100.111C198.898 100.875 201.213 99.6417 202.101 97.3561Z" fill="#0CA453" stroke="#080101" stroke-miterlimit="10"/>
<path d="M174.36 147.835L287.89 81.7053" stroke="#A2A2A2" stroke-miterlimit="10" stroke-linecap="round"/>
<path d="M173.86 181.095L273.08 124.015" stroke="#A2A2A2" stroke-miterlimit="10" stroke-linecap="round"/>
<path d="M340.056 144.732C356.84 115.661 355.565 83.5033 337.208 72.9049C318.851 62.3066 290.364 77.2813 273.58 106.352C256.796 135.423 258.071 167.581 276.428 178.179C294.785 188.777 323.272 173.803 340.056 144.732Z" fill="#E05A5E" stroke="black" stroke-miterlimit="10" stroke-linecap="round"/>
<path d="M348.293 147.699C365.077 118.629 363.802 86.4708 345.445 75.8724C327.088 65.2741 298.601 80.2489 281.817 109.319C265.033 138.39 266.308 170.548 284.665 181.147C303.022 191.745 331.509 176.77 348.293 147.699Z" fill="#E05A5E" stroke="black" stroke-miterlimit="10" stroke-linecap="round"/>
<path d="M337.83 105.525L288.36 138.645C287.6 139.155 287.18 140.035 287.26 140.945L288.39 153.226C288.56 155.106 290.68 156.125 292.26 155.075L341.74 122.245C342.5 121.735 342.93 120.855 342.85 119.935L341.72 107.365C341.55 105.475 339.42 104.455 337.84 105.515L337.83 105.525Z" fill="white" stroke="black" stroke-miterlimit="10" stroke-linecap="round"/>
</svg>
