<svg width="431" height="252" viewBox="0 0 431 252" fill="none" xmlns="http://www.w3.org/2000/svg">
<g clip-path="url(#clip0_2360_254)">
<path d="M280.521 66.1191C284.581 69.8397 286.841 73.9644 286.841 78.3096C286.841 94.7167 254.615 108.019 214.865 108.019C175.115 108.019 142.889 94.7167 142.889 78.3096C142.889 71.135 149.053 64.5483 159.324 59.413" stroke="#080101" stroke-miterlimit="10"/>
<g opacity="0.51">
<path d="M80.173 94.9647C177.982 126.778 287.549 162.908 385.091 195.529C287.282 163.716 177.715 127.586 80.173 94.9647Z" fill="#686767"/>
<path d="M163.926 65.6965L174.436 69.0037L174.408 69.1047L163.926 65.6965Z" fill="#686767"/>
<path d="M184.954 72.32L195.463 75.6363L195.372 75.9394L184.89 72.522L184.954 72.32Z" fill="#686767"/>
<path d="M205.973 78.9802L216.473 82.3241L216.353 82.7099L205.863 79.3293L205.973 78.9802Z" fill="#686767"/>
<path d="M226.982 85.6771L237.482 89.021L237.335 89.4803L226.844 86.0905L226.982 85.6771Z" fill="#686767"/>
<path d="M247.983 92.3649L258.483 95.7179L258.317 96.2416L247.826 92.8609L247.983 92.3649Z" fill="#686767"/>
<path d="M268.992 99.0618L279.492 102.415L279.299 103.003L268.808 99.6222L268.992 99.0618Z" fill="#686767"/>
<path d="M289.992 105.759L300.502 109.112L300.29 109.764L289.8 106.393L289.992 105.759Z" fill="#686767"/>
<path d="M310.993 112.502L321.484 115.882L321.3 116.461L310.791 113.117L310.993 112.502Z" fill="#686767"/>
<path d="M331.975 119.263L342.466 122.644L342.3 123.158L331.8 119.814L331.975 119.263Z" fill="#686767"/>
<path d="M352.957 126.024L363.448 129.414L363.31 129.855L352.8 126.502L352.957 126.024Z" fill="#686767"/>
<path d="M373.939 132.795L384.429 136.175L384.31 136.552L373.81 133.199L373.939 132.795Z" fill="#686767"/>
<path d="M394.93 139.556L405.412 142.964L405.329 143.221L394.819 139.896L394.93 139.556Z" fill="#686767"/>
<path d="M415.893 146.381L426.375 149.79L426.357 149.854L415.838 146.538L415.893 146.381Z" fill="#686767"/>
<path d="M8.80322 134.531L15.8125 136.736C15.8125 136.736 15.84 136.754 15.8308 136.772C15.8308 136.791 15.8125 136.8 15.7941 136.791L8.80322 134.531Z" fill="#686767"/>
<path d="M22.831 138.94L29.8403 141.145C29.8403 141.145 29.9138 141.209 29.8954 141.255C29.8771 141.301 29.8311 141.329 29.7852 141.31L22.7943 139.051C22.7667 139.041 22.7483 139.005 22.7575 138.977C22.7667 138.95 22.8034 138.931 22.831 138.94Z" fill="#686767"/>
<path d="M36.8495 143.35L43.8588 145.555C43.9323 145.582 43.9783 145.656 43.9508 145.738C43.9232 145.812 43.8496 145.858 43.767 145.83L36.7761 143.57C36.7118 143.552 36.6842 143.488 36.7026 143.423C36.721 143.359 36.7852 143.332 36.8495 143.35Z" fill="#686767"/>
<path d="M50.868 147.759L57.8773 149.983C57.9692 150.01 58.0243 150.111 57.9967 150.212C57.9692 150.304 57.8681 150.359 57.7671 150.332L50.767 148.09C50.6751 148.063 50.6292 147.961 50.6567 147.87C50.6843 147.778 50.7853 147.732 50.8772 147.759H50.868Z" fill="#686767"/>
<path d="M64.8867 152.206L71.896 154.429C72.0062 154.466 72.0614 154.576 72.0246 154.686C71.9879 154.796 71.8776 154.851 71.7674 154.815L64.7673 152.573C64.6662 152.536 64.6111 152.435 64.6387 152.334C64.6754 152.233 64.7765 152.178 64.8775 152.206H64.8867Z" fill="#686767"/>
<path d="M78.896 156.652L85.9053 158.875C86.0248 158.912 86.0891 159.04 86.0524 159.151C86.0156 159.27 85.887 159.334 85.7767 159.298L78.7766 157.056C78.6664 157.019 78.6021 156.9 78.6388 156.79C78.6755 156.68 78.795 156.615 78.9052 156.652H78.896Z" fill="#686767"/>
<path d="M92.9055 161.098L99.9148 163.321C100.043 163.358 100.117 163.496 100.071 163.624C100.034 163.753 99.8964 163.827 99.7678 163.781L92.7677 161.539C92.6482 161.502 92.5748 161.374 92.6208 161.245C92.6575 161.126 92.7861 161.052 92.9147 161.098H92.9055Z" fill="#686767"/>
<path d="M106.915 165.544L113.924 167.768C114.062 167.814 114.136 167.961 114.099 168.098C114.053 168.236 113.906 168.31 113.768 168.273L106.768 166.031C106.639 165.985 106.566 165.848 106.603 165.719C106.649 165.59 106.786 165.517 106.915 165.554V165.544Z" fill="#686767"/>
<path d="M120.924 169.982L127.934 172.205C128.081 172.251 128.163 172.407 128.117 172.554C128.071 172.701 127.915 172.783 127.768 172.738L120.768 170.496C120.621 170.45 120.548 170.294 120.594 170.156C120.639 170.009 120.796 169.936 120.933 169.982H120.924Z" fill="#686767"/>
<path d="M134.934 174.428L141.943 176.651C142.099 176.697 142.191 176.871 142.136 177.028C142.09 177.184 141.915 177.276 141.759 177.221L134.759 174.979C134.603 174.933 134.52 174.768 134.566 174.612C134.612 174.455 134.777 174.373 134.934 174.419V174.428Z" fill="#686767"/>
<path d="M148.943 178.874L155.952 181.097C156.118 181.152 156.219 181.327 156.164 181.501C156.108 181.667 155.934 181.768 155.759 181.713L148.759 179.471C148.594 179.416 148.502 179.242 148.557 179.076C148.612 178.911 148.787 178.819 148.943 178.874Z" fill="#686767"/>
<path d="M162.952 183.32L169.962 185.543C170.146 185.599 170.237 185.791 170.182 185.975C170.127 186.159 169.934 186.251 169.751 186.196L162.75 183.954C162.576 183.899 162.484 183.715 162.539 183.541C162.594 183.366 162.778 183.274 162.952 183.33V183.32Z" fill="#686767"/>
<path d="M176.962 187.776L183.962 190.017C184.136 190.072 184.228 190.256 184.173 190.431C184.118 190.605 183.934 190.697 183.76 190.642L176.751 188.419C176.576 188.364 176.475 188.171 176.53 187.996C176.585 187.822 176.778 187.721 176.953 187.776H176.962Z" fill="#686767"/>
<path d="M190.953 192.259L197.953 194.5C198.118 194.555 198.201 194.73 198.155 194.886C198.1 195.051 197.935 195.134 197.769 195.088L190.76 192.865C190.595 192.81 190.503 192.635 190.549 192.461C190.604 192.296 190.778 192.204 190.953 192.25V192.259Z" fill="#686767"/>
<path d="M204.953 196.742L211.953 198.983C212.109 199.029 212.192 199.195 212.137 199.351C212.082 199.507 211.926 199.59 211.779 199.534L204.769 197.311C204.613 197.265 204.521 197.091 204.576 196.935C204.622 196.779 204.797 196.687 204.953 196.742Z" fill="#686767"/>
<path d="M218.953 201.225L225.953 203.466C226.091 203.512 226.174 203.659 226.128 203.806C226.082 203.944 225.935 204.027 225.788 203.981L218.779 201.758C218.632 201.712 218.549 201.556 218.595 201.409C218.641 201.262 218.797 201.179 218.944 201.225H218.953Z" fill="#686767"/>
<path d="M232.954 205.708L239.954 207.949C240.082 207.995 240.156 208.133 240.119 208.262C240.073 208.39 239.935 208.464 239.807 208.427L232.797 206.204C232.66 206.158 232.586 206.011 232.632 205.882C232.678 205.745 232.825 205.671 232.954 205.717V205.708Z" fill="#686767"/>
<path d="M246.945 210.191L253.945 212.432C254.064 212.469 254.128 212.598 254.092 212.717C254.055 212.837 253.926 212.901 253.807 212.864L246.798 210.641C246.669 210.604 246.605 210.466 246.641 210.338C246.678 210.209 246.816 210.145 246.945 210.182V210.191Z" fill="#686767"/>
<path d="M260.945 214.674L267.945 216.915C268.055 216.952 268.119 217.072 268.083 217.182C268.046 217.292 267.926 217.356 267.816 217.32L260.807 215.096C260.688 215.06 260.632 214.94 260.66 214.821C260.697 214.701 260.816 214.646 260.936 214.674H260.945Z" fill="#686767"/>
<path d="M274.945 219.166L281.945 221.407C282.046 221.435 282.101 221.545 282.064 221.646C282.037 221.747 281.927 221.803 281.826 221.766L274.816 219.543C274.715 219.506 274.651 219.396 274.688 219.295C274.724 219.194 274.835 219.129 274.936 219.166H274.945Z" fill="#686767"/>
<path d="M288.945 223.649L295.945 225.9C296.028 225.927 296.074 226.019 296.046 226.102C296.019 226.184 295.927 226.23 295.844 226.203L288.835 223.989C288.743 223.961 288.688 223.86 288.716 223.768C288.743 223.677 288.844 223.621 288.936 223.649H288.945Z" fill="#686767"/>
<path d="M302.936 228.15L309.927 230.41C309.982 230.429 310.01 230.484 309.991 230.539C309.973 230.594 309.918 230.622 309.863 230.603L302.853 228.398C302.78 228.38 302.743 228.297 302.762 228.233C302.78 228.16 302.863 228.123 302.927 228.141L302.936 228.15Z" fill="#686767"/>
<path d="M316.918 232.67L323.909 234.93C323.909 234.93 323.946 234.967 323.937 234.985C323.937 235.013 323.9 235.022 323.881 235.013L316.872 232.808C316.872 232.808 316.808 232.753 316.826 232.716C316.845 232.679 316.881 232.652 316.918 232.67Z" fill="#686767"/>
<path d="M330.909 237.19L335.328 238.623L330.891 237.227C330.891 237.227 330.872 237.217 330.881 237.208C330.891 237.199 330.891 237.19 330.9 237.199L330.909 237.19Z" fill="#686767"/>
<g opacity="0.61">
<path d="M406.082 121.624L402.959 123.562C402.959 123.562 402.94 123.562 402.931 123.562C402.931 123.553 402.931 123.544 402.931 123.535L406.073 121.624H406.082Z" fill="#686767"/>
<path d="M396.721 127.448L390.474 131.334C390.428 131.362 390.364 131.352 390.336 131.306C390.309 131.26 390.318 131.196 390.364 131.169L396.648 127.347C396.675 127.329 396.712 127.347 396.73 127.365C396.749 127.393 396.73 127.43 396.712 127.448H396.721Z" fill="#686767"/>
<path d="M384.227 135.211L377.981 139.087C377.898 139.142 377.788 139.115 377.742 139.032C377.696 138.95 377.714 138.839 377.797 138.793L384.08 134.972C384.145 134.935 384.227 134.953 384.273 135.018C384.31 135.082 384.292 135.165 384.227 135.211Z" fill="#686767"/>
<path d="M371.725 142.955L365.469 146.813C365.377 146.868 365.248 146.841 365.193 146.749C365.138 146.657 365.165 146.528 365.257 146.473L371.532 142.633C371.624 142.578 371.734 142.606 371.789 142.698C371.844 142.79 371.817 142.9 371.725 142.955Z" fill="#686767"/>
<path d="M359.203 150.681L352.948 154.539C352.837 154.603 352.699 154.576 352.635 154.466C352.571 154.355 352.598 154.218 352.709 154.153L358.983 150.313C359.084 150.249 359.213 150.286 359.277 150.387C359.341 150.488 359.305 150.616 359.203 150.681Z" fill="#686767"/>
<path d="M346.682 158.407L340.426 162.265C340.307 162.338 340.151 162.302 340.077 162.182C340.004 162.063 340.04 161.907 340.16 161.833L346.434 157.993C346.544 157.92 346.701 157.956 346.765 158.076C346.838 158.186 346.802 158.342 346.682 158.407Z" fill="#686767"/>
<path d="M334.17 166.132L327.914 169.991C327.786 170.073 327.611 170.027 327.528 169.899C327.446 169.77 327.492 169.596 327.62 169.513L333.895 165.673C334.023 165.6 334.189 165.636 334.262 165.765C334.336 165.894 334.299 166.059 334.17 166.132Z" fill="#686767"/>
<path d="M321.649 173.849L315.393 177.707C315.246 177.799 315.053 177.753 314.97 177.606C314.879 177.459 314.924 177.266 315.071 177.184L321.346 173.344C321.484 173.261 321.667 173.298 321.75 173.445C321.833 173.592 321.796 173.766 321.649 173.849Z" fill="#686767"/>
<path d="M309.137 181.575L302.881 185.433C302.725 185.534 302.514 185.479 302.422 185.323C302.33 185.167 302.376 184.956 302.532 184.864L308.806 181.024C308.963 180.932 309.155 180.978 309.247 181.134C309.339 181.29 309.293 181.483 309.137 181.575Z" fill="#686767"/>
<path d="M296.607 189.292L290.332 193.132C290.176 193.223 289.983 193.177 289.882 193.021C289.79 192.865 289.836 192.672 289.992 192.571L296.248 188.713C296.405 188.612 296.616 188.667 296.717 188.823C296.818 188.979 296.763 189.191 296.607 189.292Z" fill="#686767"/>
<path d="M284.067 196.971L277.793 200.811C277.655 200.894 277.471 200.857 277.379 200.71C277.297 200.573 277.333 200.389 277.48 200.306L283.736 196.448C283.883 196.356 284.076 196.402 284.168 196.549C284.26 196.696 284.214 196.889 284.067 196.981V196.971Z" fill="#686767"/>
<path d="M271.518 204.642L265.244 208.482C265.115 208.556 264.95 208.519 264.877 208.39C264.803 208.262 264.84 208.096 264.968 208.023L271.224 204.164C271.362 204.082 271.537 204.128 271.619 204.256C271.702 204.394 271.656 204.569 271.528 204.651L271.518 204.642Z" fill="#686767"/>
<path d="M258.97 212.322L252.695 216.162C252.585 216.236 252.429 216.199 252.365 216.079C252.3 215.96 252.328 215.813 252.447 215.749L258.703 211.89C258.823 211.817 258.979 211.854 259.052 211.973C259.126 212.092 259.089 212.249 258.97 212.322Z" fill="#686767"/>
<path d="M246.421 220.002L240.147 223.842C240.046 223.906 239.917 223.869 239.853 223.768C239.788 223.667 239.825 223.539 239.926 223.474L246.182 219.616C246.292 219.552 246.43 219.579 246.494 219.69C246.559 219.8 246.531 219.938 246.421 220.002Z" fill="#686767"/>
<path d="M233.881 227.673L227.607 231.513C227.515 231.568 227.405 231.54 227.35 231.448C227.295 231.356 227.322 231.246 227.414 231.191L233.67 227.333C233.762 227.278 233.891 227.305 233.946 227.397C234.001 227.489 233.973 227.618 233.881 227.673Z" fill="#686767"/>
<path d="M221.333 235.353L215.049 239.174C214.985 239.211 214.902 239.192 214.856 239.128C214.819 239.064 214.838 238.981 214.902 238.935L221.149 235.059C221.232 235.004 221.342 235.031 221.388 235.114C221.434 235.196 221.415 235.307 221.333 235.353Z" fill="#686767"/>
<path d="M208.756 242.987L202.473 246.799C202.473 246.799 202.408 246.799 202.39 246.781C202.372 246.753 202.39 246.716 202.408 246.698L208.655 242.812C208.701 242.784 208.765 242.794 208.793 242.84C208.821 242.886 208.811 242.95 208.765 242.977L208.756 242.987Z" fill="#686767"/>
<path d="M196.189 250.621L193.047 252.531L196.171 250.593C196.171 250.593 196.189 250.593 196.198 250.593C196.198 250.602 196.198 250.611 196.198 250.621H196.189Z" fill="#686767"/>
</g>
<path d="M347.188 98.5933L344.018 100.449C344.018 100.449 344 100.449 343.991 100.449C343.991 100.44 343.991 100.431 343.991 100.421L347.178 98.5933H347.188Z" fill="#686767"/>
<path d="M337.551 104.243L331.084 108.037C331.038 108.065 330.973 108.046 330.946 108C330.918 107.954 330.937 107.89 330.983 107.862L337.487 104.142C337.514 104.124 337.551 104.142 337.569 104.16C337.588 104.188 337.569 104.225 337.551 104.243Z" fill="#686767"/>
<path d="M324.626 111.822L318.158 115.607C318.076 115.653 317.965 115.625 317.919 115.542C317.874 115.46 317.901 115.349 317.984 115.304L324.488 111.583C324.552 111.546 324.635 111.565 324.672 111.638C324.708 111.702 324.69 111.785 324.626 111.822Z" fill="#686767"/>
<path d="M311.673 119.373L305.196 123.14C305.104 123.195 304.976 123.167 304.92 123.066C304.865 122.965 304.893 122.846 304.994 122.791L311.489 119.042C311.581 118.987 311.691 119.024 311.746 119.107C311.801 119.189 311.764 119.309 311.682 119.364L311.673 119.373Z" fill="#686767"/>
<path d="M298.72 126.915L292.243 130.682C292.133 130.746 291.995 130.709 291.931 130.599C291.867 130.489 291.903 130.351 292.013 130.287L298.508 126.539C298.609 126.484 298.738 126.511 298.802 126.621C298.857 126.722 298.83 126.851 298.729 126.915H298.72Z" fill="#686767"/>
<path d="M285.757 134.448L279.281 138.215C279.162 138.288 279.005 138.242 278.932 138.123C278.858 138.003 278.904 137.847 279.024 137.774L285.519 134.026C285.638 133.961 285.785 133.998 285.849 134.118C285.914 134.237 285.877 134.384 285.757 134.448Z" fill="#686767"/>
<path d="M272.805 141.981L266.328 145.748C266.19 145.83 266.016 145.784 265.942 145.647C265.86 145.509 265.905 145.334 266.043 145.261L272.538 141.513C272.667 141.439 272.832 141.485 272.906 141.614C272.979 141.742 272.933 141.908 272.805 141.981Z" fill="#686767"/>
<path d="M259.852 149.514L253.375 153.281C253.228 153.363 253.035 153.317 252.952 153.17C252.87 153.023 252.916 152.83 253.063 152.748L259.558 149C259.695 148.917 259.879 148.963 259.962 149.11C260.044 149.248 259.998 149.431 259.852 149.514Z" fill="#686767"/>
<path d="M246.889 157.047L240.413 160.813C240.248 160.905 240.045 160.85 239.954 160.694C239.862 160.529 239.917 160.327 240.073 160.235L246.568 156.487C246.724 156.395 246.917 156.45 247.009 156.606C247.101 156.762 247.046 156.955 246.889 157.047Z" fill="#686767"/>
<path d="M233.927 164.571L227.432 168.319C227.276 168.411 227.074 168.356 226.992 168.199C226.9 168.043 226.955 167.85 227.111 167.758L233.587 163.992C233.753 163.9 233.955 163.955 234.047 164.111C234.139 164.277 234.083 164.479 233.927 164.571Z" fill="#686767"/>
<path d="M220.947 172.067L214.452 175.815C214.314 175.898 214.13 175.852 214.048 175.705C213.965 175.567 214.011 175.383 214.158 175.301L220.634 171.534C220.781 171.451 220.974 171.497 221.057 171.644C221.14 171.791 221.094 171.984 220.947 172.067Z" fill="#686767"/>
<path d="M207.957 179.554L201.462 183.302C201.334 183.375 201.168 183.33 201.095 183.201C201.021 183.072 201.067 182.907 201.196 182.833L207.672 179.067C207.81 178.984 207.985 179.03 208.058 179.168C208.141 179.306 208.095 179.48 207.957 179.554Z" fill="#686767"/>
<path d="M194.977 187.041L188.482 190.789C188.362 190.853 188.215 190.817 188.151 190.697C188.087 190.578 188.123 190.431 188.243 190.366L194.719 186.6C194.839 186.526 194.995 186.572 195.069 186.692C195.142 186.811 195.096 186.967 194.977 187.041Z" fill="#686767"/>
<path d="M181.987 194.528L175.492 198.276C175.391 198.331 175.253 198.304 175.198 198.193C175.143 198.083 175.171 197.954 175.281 197.899L181.757 194.133C181.867 194.069 182.005 194.105 182.07 194.216C182.134 194.326 182.097 194.464 181.987 194.528Z" fill="#686767"/>
<path d="M169.006 202.015L162.511 205.763C162.42 205.818 162.309 205.781 162.254 205.699C162.199 205.616 162.236 205.496 162.319 205.441L168.795 201.675C168.887 201.62 169.016 201.647 169.071 201.748C169.126 201.84 169.098 201.969 168.997 202.024L169.006 202.015Z" fill="#686767"/>
<path d="M156.026 209.502L149.522 213.222C149.458 213.259 149.375 213.241 149.329 213.167C149.292 213.103 149.31 213.02 149.375 212.974L155.842 209.189C155.925 209.144 156.035 209.171 156.081 209.254C156.127 209.336 156.099 209.447 156.017 209.493L156.026 209.502Z" fill="#686767"/>
<path d="M143.018 216.943L136.514 220.663C136.514 220.663 136.449 220.663 136.431 220.645C136.413 220.617 136.431 220.581 136.449 220.562L142.917 216.768C142.963 216.741 143.027 216.759 143.054 216.805C143.082 216.851 143.064 216.915 143.018 216.943Z" fill="#686767"/>
<path d="M130.001 224.393L126.813 226.221L129.982 224.366C129.982 224.366 130.001 224.366 130.01 224.366C130.01 224.375 130.01 224.384 130.01 224.393H130.001Z" fill="#686767"/>
<path d="M288.293 75.572C217.006 115.809 136.817 160.538 65.1163 200.031C136.394 159.794 216.592 115.074 288.293 75.572Z" fill="#686767"/>
<path d="M229.398 52.5414L226.192 54.3328C226.192 54.3328 226.174 54.3328 226.165 54.3328C226.165 54.3236 226.165 54.3145 226.165 54.3053L229.389 52.5506L229.398 52.5414Z" fill="#686767"/>
<path d="M219.606 58.0166L213.019 61.7004C212.973 61.7279 212.909 61.7096 212.881 61.6637C212.853 61.6177 212.872 61.5534 212.918 61.5258L219.541 57.9156C219.569 57.8972 219.606 57.9155 219.624 57.9431C219.642 57.9706 219.624 58.0074 219.606 58.0258V58.0166Z" fill="#686767"/>
<path d="M206.432 65.375L199.845 69.0496C199.763 69.0955 199.653 69.0679 199.607 68.9852C199.561 68.9026 199.588 68.7923 199.671 68.7464L206.294 65.1269C206.359 65.0902 206.441 65.1177 206.478 65.182C206.515 65.2463 206.487 65.329 206.423 65.3658L206.432 65.375Z" fill="#686767"/>
<path d="M193.24 72.7058L186.644 76.3621C186.543 76.4172 186.424 76.3804 186.369 76.2793C186.314 76.1783 186.351 76.0589 186.452 76.0038L193.066 72.3659C193.158 72.32 193.268 72.3475 193.323 72.4394C193.369 72.5313 193.341 72.6415 193.25 72.6966L193.24 72.7058Z" fill="#686767"/>
<path d="M180.048 80.0274L173.453 83.6836C173.342 83.7479 173.205 83.702 173.14 83.5918C173.076 83.4815 173.122 83.3437 173.232 83.2794L179.846 79.6415C179.947 79.5864 180.085 79.6232 180.14 79.7243C180.196 79.8253 180.159 79.9539 180.058 80.0182L180.048 80.0274Z" fill="#686767"/>
<path d="M166.847 87.3399L160.252 90.9961C160.132 91.0604 159.976 91.0237 159.903 90.895C159.829 90.7664 159.875 90.6194 160.004 90.5459L166.618 86.9081C166.737 86.8438 166.884 86.8897 166.948 87C167.013 87.1194 166.967 87.2664 166.857 87.3307L166.847 87.3399Z" fill="#686767"/>
<path d="M153.656 94.6523L147.06 98.3085C146.922 98.382 146.748 98.3361 146.674 98.1983C146.601 98.0605 146.646 97.886 146.784 97.8125L153.399 94.1746C153.527 94.1011 153.693 94.147 153.766 94.2848C153.839 94.4135 153.794 94.5788 153.665 94.6523H153.656Z" fill="#686767"/>
<path d="M140.455 101.974L133.859 105.63C133.712 105.713 133.519 105.658 133.436 105.511C133.354 105.364 133.409 105.171 133.556 105.088L140.17 101.45C140.317 101.368 140.491 101.423 140.574 101.57C140.657 101.717 140.602 101.891 140.455 101.974Z" fill="#686767"/>
<path d="M127.263 109.286L120.667 112.943C120.502 113.034 120.3 112.97 120.208 112.814C120.116 112.649 120.18 112.447 120.336 112.355L126.951 108.717C127.107 108.634 127.3 108.689 127.392 108.845C127.474 109.002 127.419 109.195 127.263 109.286Z" fill="#686767"/>
<path d="M114.062 116.59L107.448 120.228C107.292 120.31 107.089 120.255 107.007 120.099C106.924 119.943 106.979 119.741 107.135 119.658L113.731 116.002C113.897 115.91 114.099 115.974 114.191 116.13C114.283 116.287 114.218 116.498 114.062 116.59Z" fill="#686767"/>
<path d="M100.833 123.856L94.2192 127.494C94.0722 127.577 93.8976 127.522 93.8149 127.375C93.7322 127.228 93.7874 127.053 93.9343 126.97L100.53 123.314C100.677 123.232 100.87 123.287 100.953 123.434C101.036 123.581 100.98 123.773 100.833 123.856Z" fill="#686767"/>
<path d="M87.614 131.132L80.9998 134.77C80.8712 134.843 80.7058 134.797 80.6323 134.659C80.5588 134.522 80.6047 134.366 80.7425 134.292L87.3385 130.636C87.4763 130.562 87.6508 130.608 87.7242 130.746C87.7977 130.884 87.7518 131.058 87.614 131.132Z" fill="#686767"/>
<path d="M74.3946 138.398L67.7804 142.036C67.661 142.101 67.514 142.055 67.4497 141.944C67.3854 141.825 67.4313 141.678 67.5415 141.614L74.1375 137.957C74.2569 137.893 74.4131 137.93 74.4866 138.058C74.5601 138.187 74.514 138.334 74.3854 138.408L74.3946 138.398Z" fill="#686767"/>
<path d="M61.1663 145.665L54.552 149.303C54.4509 149.358 54.3132 149.321 54.258 149.22C54.2029 149.119 54.2396 148.981 54.3407 148.926L60.9366 145.27C61.0469 145.206 61.1846 145.252 61.2489 145.362C61.3132 145.472 61.2673 145.61 61.1571 145.674L61.1663 145.665Z" fill="#686767"/>
<path d="M47.9468 152.931L41.3324 156.569C41.2406 156.615 41.1304 156.588 41.0753 156.496C41.0294 156.404 41.0569 156.294 41.1487 156.238L47.7446 152.582C47.8456 152.527 47.9651 152.564 48.0202 152.665C48.0753 152.766 48.0386 152.885 47.9376 152.941L47.9468 152.931Z" fill="#686767"/>
<path d="M34.7182 160.198L28.0948 163.808C28.0305 163.845 27.9477 163.817 27.911 163.753C27.8742 163.689 27.9018 163.606 27.9662 163.569L34.5528 159.895C34.6355 159.849 34.7457 159.876 34.7916 159.959C34.8376 160.042 34.8101 160.152 34.7274 160.198H34.7182Z" fill="#686767"/>
<path d="M21.4804 167.428L14.857 171.038C14.857 171.038 14.7928 171.038 14.7744 171.01C14.756 170.983 14.7743 170.946 14.8019 170.928L21.3886 167.244C21.4345 167.216 21.4989 167.235 21.5264 167.281C21.554 167.327 21.5356 167.391 21.4896 167.419L21.4804 167.428Z" fill="#686767"/>
<path d="M8.22447 174.648L5 176.403L8.20608 174.612C8.20608 174.612 8.22448 174.612 8.23366 174.612C8.23366 174.621 8.23366 174.63 8.23366 174.639L8.22447 174.648Z" fill="#686767"/>
</g>
<path d="M303.193 102.075L291.692 118.105" stroke="white" stroke-width="3" stroke-miterlimit="10" stroke-linecap="round"/>
<path d="M144.194 84.143L170.164 189.65C170.798 192.24 172.479 194.454 174.812 195.731C184.091 200.83 202.62 208.941 226.679 207.352C246.697 206.029 261.735 198.561 270.214 193.297C272.694 191.763 274.311 189.154 274.642 186.26L286.832 78.5484" fill="white"/>
<path d="M144.194 84.143L170.164 189.65C170.798 192.24 172.479 194.454 174.812 195.731C184.091 200.83 202.62 208.941 226.679 207.352C246.697 206.029 261.735 198.561 270.214 193.297C272.694 191.763 274.311 189.154 274.642 186.26L286.832 78.5484" stroke="#080101" stroke-miterlimit="10"/>
<path d="M147.133 78.5484C147.179 71.438 155.631 65.5036 156.807 64.6768C162.043 61.0022 167.362 60.2122 170.044 60.0101L159.324 59.413C149.053 64.5482 142.889 71.1349 142.889 78.3096C142.889 94.7166 175.115 108.019 214.865 108.019C219.798 108.019 220.791 107.991 220.791 107.908C220.809 107.467 193.874 109.544 168.106 97.5277C161.06 94.2389 147.069 87.7165 147.124 78.5392L147.133 78.5484Z" fill="#0CA453"/>
<path d="M159.728 88.3045V37.7879C159.728 34.49 161.786 31.5412 164.891 30.4112L233.716 5.29534C234.828 4.89113 236.049 4.90035 237.161 5.33212L250.757 10.6143C252.631 11.3401 253.871 13.1498 253.871 15.1616V28.5371L252.668 80.202V96.8203" fill="white"/>
<path d="M159.728 88.3045V37.7879C159.728 34.49 161.786 31.5412 164.891 30.4112L233.716 5.29534C234.828 4.89113 236.049 4.90035 237.161 5.33212L250.757 10.6143C252.631 11.3401 253.871 13.1498 253.871 15.1616V28.5371L252.668 80.202V96.8203" stroke="#080101" stroke-miterlimit="10"/>
<path d="M247.431 10.4398L175.216 37.641C172.993 38.4769 171.523 40.6082 171.523 42.9875V95.0014" stroke="#A2A2A2" stroke-width="0.75" stroke-miterlimit="10"/>
<path d="M184.789 55.8669L221.746 41.334" stroke="#0CA453" stroke-width="3" stroke-miterlimit="10" stroke-linecap="round"/>
<path d="M184.789 73.6428L221.746 59.1098" stroke="#0CA453" stroke-width="3" stroke-miterlimit="10" stroke-linecap="round"/>
<path d="M184.789 91.4095L221.746 76.8765" stroke="#0CA453" stroke-width="3" stroke-miterlimit="10" stroke-linecap="round"/>
<path d="M276.259 69.6375C278.693 72.1271 280.016 74.8187 280.016 77.6206C280.016 90.6011 251.538 101.12 216.4 101.12C181.261 101.12 152.783 90.6011 152.783 77.6206C152.783 73.5602 155.567 69.7478 160.463 66.4223" stroke="#A2A2A2" stroke-width="0.75" stroke-miterlimit="10"/>
<path d="M156.807 135.376C169.631 142.11 190.099 149.983 215.949 149.569C246.605 149.073 269.36 137.186 281.063 129.552" stroke="#A2A2A2" stroke-width="0.75" stroke-miterlimit="10"/>
<path d="M276.538 59.9003C283.9 45.6356 280.088 29.0237 268.024 22.7967C255.959 16.5697 240.21 23.0856 232.848 37.3503C225.485 51.6151 229.297 68.2269 241.362 74.4539C253.426 80.6809 269.175 74.165 276.538 59.9003Z" fill="white" stroke="#080101" stroke-miterlimit="10"/>
<path d="M283.088 63.2736C290.451 49.0088 286.639 32.397 274.574 26.17C262.51 19.943 246.761 26.4589 239.398 40.7236C232.036 54.9883 235.847 71.6002 247.912 77.8272C259.977 84.0542 275.725 77.5383 283.088 63.2736Z" fill="#E05A5E" stroke="#212121" stroke-width="0.5" stroke-miterlimit="10" stroke-linecap="round"/>
<path d="M270.591 42.2434L255.304 63.5469" stroke="white" stroke-width="4" stroke-miterlimit="10" stroke-linecap="round"/>
<path d="M254.395 44.7697L271.491 59.808" stroke="white" stroke-width="4" stroke-miterlimit="10" stroke-linecap="round"/>
<path d="M183.457 196.365C181.123 195.079 179.442 192.865 178.808 190.284L155.53 95.7363C154.574 95.2678 153.647 94.735 152.792 94.1471C151.295 93.1182 149.972 91.9974 148.778 90.647C148.465 90.2979 148.171 89.9305 147.85 89.5906C147.593 89.315 146.141 88.3136 147.234 89.0026C146.49 88.5433 145.856 87.9829 145.324 87.3766L170.66 190.293C171.294 192.883 172.975 195.097 175.308 196.374C184.32 201.326 202.069 209.125 225.127 208.105C206.037 207.27 191.366 200.729 183.457 196.374V196.365Z" fill="#0CA453"/>
</g>
<defs>
<clipPath id="clip0_2360_254">
<rect width="431" height="252" fill="white"/>
</clipPath>
</defs>
</svg>
