<svg width="466" height="247" viewBox="0 0 466 247" fill="none" xmlns="http://www.w3.org/2000/svg">
<g opacity="0.51">
<path d="M81.8301 69.917C188.3 104.547 307.57 143.877 413.75 179.387C307.28 144.757 188.01 105.427 81.8301 69.917Z" fill="#686767"/>
<path d="M162.51 34.687L173.95 38.297L173.92 38.407L162.51 34.687Z" fill="#686767"/>
<path d="M185.39 41.907L196.84 45.517L196.74 45.837L185.33 42.117L185.39 41.907Z" fill="#686767"/>
<path d="M208.28 49.157L219.71 52.797L219.58 53.217L208.15 49.527L208.28 49.157Z" fill="#686767"/>
<path d="M231.14 56.447L242.58 60.087L242.42 60.577L231 56.897L231.14 56.447Z" fill="#686767"/>
<path d="M254.01 63.7371L265.44 67.3771L265.26 67.9371L253.84 64.2571L254.01 63.7371Z" fill="#686767"/>
<path d="M276.87 71.027L288.31 74.667L288.1 75.297L276.68 71.617L276.87 71.027Z" fill="#686767"/>
<path d="M299.74 78.317L311.17 81.957L310.95 82.667L299.53 78.977L299.74 78.317Z" fill="#686767"/>
<path d="M322.6 85.627L334.02 89.3069L333.81 89.9669L322.38 86.317L322.6 85.627Z" fill="#686767"/>
<path d="M345.44 92.9971L356.86 96.6771L356.68 97.2571L345.24 93.6071L345.44 92.9971Z" fill="#686767"/>
<path d="M368.28 100.357L379.7 104.037L379.54 104.547L368.11 100.897L368.28 100.357Z" fill="#686767"/>
<path d="M391.13 107.717L402.55 111.397L402.41 111.837L390.97 108.187L391.13 107.717Z" fill="#686767"/>
<path d="M413.97 115.077L425.39 118.767L425.27 119.127L413.84 115.477L413.97 115.077Z" fill="#686767"/>
<path d="M436.8 122.477L448.21 126.187L448.16 126.347L436.72 122.737L436.8 122.477Z" fill="#686767"/>
<path d="M459.62 129.907L465.45 131.807L459.6 129.957L459.62 129.907Z" fill="#686767"/>
<path d="M4.14001 112.987L11.77 115.387C11.77 115.387 11.8 115.407 11.79 115.427C11.78 115.447 11.77 115.457 11.75 115.447L4.14001 112.987Z" fill="#686767"/>
<path d="M19.4001 117.787L27.0301 120.187C27.0301 120.187 27.1101 120.257 27.0901 120.307C27.0701 120.357 27.0201 120.387 26.9701 120.367L19.3601 117.907C19.3301 117.897 19.3101 117.857 19.3201 117.827C19.3301 117.797 19.3701 117.777 19.4001 117.787Z" fill="#686767"/>
<path d="M34.67 122.587L42.3 124.987C42.38 125.017 42.43 125.097 42.4 125.187C42.37 125.267 42.29 125.317 42.2 125.287L34.5901 122.827C34.5201 122.807 34.49 122.737 34.51 122.667C34.53 122.597 34.6 122.567 34.67 122.587Z" fill="#686767"/>
<path d="M49.93 127.387L57.56 129.807C57.66 129.837 57.72 129.947 57.69 130.057C57.66 130.157 57.55 130.217 57.44 130.187L49.82 127.747C49.72 127.717 49.6701 127.607 49.7001 127.507C49.7301 127.407 49.84 127.357 49.94 127.387H49.93Z" fill="#686767"/>
<path d="M65.1801 132.227L72.8101 134.647C72.9301 134.687 72.9901 134.807 72.9501 134.927C72.9101 135.047 72.79 135.107 72.67 135.067L65.0501 132.627C64.9401 132.587 64.88 132.477 64.91 132.367C64.94 132.257 65.06 132.197 65.17 132.227H65.1801Z" fill="#686767"/>
<path d="M80.43 137.067L88.06 139.487C88.19 139.527 88.26 139.667 88.22 139.787C88.18 139.917 88.04 139.987 87.92 139.947L80.3 137.507C80.18 137.467 80.11 137.337 80.15 137.217C80.19 137.097 80.32 137.027 80.44 137.067H80.43Z" fill="#686767"/>
<path d="M95.6801 141.907L103.31 144.327C103.45 144.367 103.53 144.517 103.48 144.657C103.44 144.797 103.29 144.877 103.15 144.827L95.5301 142.387C95.4001 142.347 95.32 142.207 95.37 142.067C95.41 141.937 95.5501 141.857 95.6901 141.907H95.6801Z" fill="#686767"/>
<path d="M110.93 146.737L118.56 149.157C118.71 149.207 118.79 149.367 118.75 149.517C118.7 149.667 118.54 149.747 118.39 149.707L110.77 147.267C110.63 147.217 110.55 147.067 110.59 146.927C110.64 146.787 110.79 146.707 110.93 146.747V146.737Z" fill="#686767"/>
<path d="M126.18 151.577L133.81 153.997C133.97 154.047 134.06 154.217 134.01 154.377C133.96 154.537 133.79 154.627 133.63 154.577L126.01 152.137C125.85 152.087 125.77 151.917 125.82 151.767C125.87 151.607 126.04 151.527 126.19 151.577H126.18Z" fill="#686767"/>
<path d="M141.43 156.417L149.06 158.837C149.23 158.887 149.33 159.077 149.27 159.247C149.22 159.417 149.03 159.517 148.86 159.457L141.24 157.017C141.07 156.967 140.98 156.787 141.03 156.617C141.08 156.447 141.26 156.357 141.43 156.407V156.417Z" fill="#686767"/>
<path d="M156.68 161.257L164.31 163.677C164.49 163.737 164.6 163.927 164.54 164.117C164.48 164.297 164.29 164.407 164.1 164.347L156.48 161.907C156.3 161.847 156.2 161.657 156.26 161.477C156.32 161.297 156.51 161.197 156.68 161.257Z" fill="#686767"/>
<path d="M171.94 166.097L179.57 168.517C179.77 168.577 179.87 168.787 179.81 168.987C179.75 169.187 179.54 169.287 179.34 169.227L171.72 166.787C171.53 166.727 171.43 166.527 171.49 166.337C171.55 166.147 171.75 166.047 171.94 166.107V166.097Z" fill="#686767"/>
<path d="M187.18 170.947L194.8 173.387C194.99 173.447 195.09 173.647 195.03 173.837C194.97 174.027 194.77 174.127 194.58 174.067L186.95 171.647C186.76 171.587 186.65 171.377 186.71 171.187C186.77 170.997 186.98 170.887 187.17 170.947H187.18Z" fill="#686767"/>
<path d="M202.42 175.827L210.04 178.267C210.22 178.327 210.31 178.517 210.26 178.687C210.2 178.867 210.02 178.957 209.84 178.907L202.21 176.487C202.03 176.427 201.93 176.237 201.98 176.047C202.04 175.867 202.23 175.767 202.42 175.817V175.827Z" fill="#686767"/>
<path d="M217.66 180.707L225.28 183.147C225.45 183.197 225.54 183.377 225.48 183.547C225.43 183.717 225.25 183.807 225.09 183.747L217.46 181.327C217.29 181.277 217.19 181.087 217.25 180.917C217.3 180.747 217.49 180.647 217.66 180.707Z" fill="#686767"/>
<path d="M232.89 185.587L240.51 188.027C240.66 188.077 240.75 188.237 240.7 188.397C240.65 188.547 240.49 188.637 240.33 188.587L232.7 186.167C232.54 186.117 232.45 185.947 232.5 185.787C232.55 185.627 232.72 185.537 232.88 185.587H232.89Z" fill="#686767"/>
<path d="M248.13 190.467L255.75 192.907C255.89 192.957 255.97 193.107 255.93 193.247C255.88 193.387 255.73 193.467 255.59 193.427L247.96 191.007C247.81 190.957 247.73 190.797 247.78 190.657C247.83 190.517 247.99 190.427 248.13 190.477V190.467Z" fill="#686767"/>
<path d="M263.37 195.347L270.99 197.787C271.12 197.827 271.19 197.967 271.15 198.097C271.11 198.227 270.97 198.297 270.84 198.257L263.21 195.837C263.07 195.797 263 195.647 263.04 195.507C263.08 195.367 263.23 195.297 263.37 195.337V195.347Z" fill="#686767"/>
<path d="M278.61 200.227L286.23 202.667C286.35 202.707 286.42 202.837 286.38 202.957C286.34 203.077 286.21 203.147 286.09 203.107L278.46 200.687C278.33 200.647 278.27 200.517 278.3 200.387C278.33 200.257 278.47 200.197 278.6 200.227H278.61Z" fill="#686767"/>
<path d="M293.85 205.107L301.47 207.547C301.58 207.577 301.64 207.697 301.6 207.807C301.57 207.917 301.45 207.977 301.34 207.937L293.71 205.517C293.6 205.477 293.53 205.357 293.57 205.247C293.61 205.137 293.73 205.067 293.84 205.107H293.85Z" fill="#686767"/>
<path d="M309.08 209.987L316.7 212.437C316.79 212.467 316.84 212.567 316.81 212.657C316.78 212.747 316.68 212.797 316.59 212.767L308.96 210.357C308.86 210.327 308.8 210.217 308.83 210.117C308.86 210.017 308.97 209.957 309.07 209.987H309.08Z" fill="#686767"/>
<path d="M324.31 214.897L331.92 217.357C331.98 217.377 332.01 217.437 331.99 217.497C331.97 217.557 331.91 217.587 331.85 217.567L324.22 215.167C324.14 215.147 324.1 215.057 324.12 214.987C324.14 214.917 324.23 214.867 324.3 214.887L324.31 214.897Z" fill="#686767"/>
<path d="M339.54 219.817L347.15 222.277C347.15 222.277 347.19 222.317 347.18 222.337C347.18 222.367 347.14 222.377 347.12 222.367L339.49 219.967C339.49 219.967 339.42 219.907 339.44 219.867C339.45 219.827 339.5 219.797 339.54 219.817Z" fill="#686767"/>
<path d="M354.76 224.737L359.57 226.297L354.74 224.777C354.74 224.777 354.72 224.767 354.73 224.757C354.74 224.747 354.74 224.737 354.76 224.747V224.737Z" fill="#686767"/>
<g opacity="0.61">
<path d="M436.6 98.937L433.2 101.047C433.2 101.047 433.18 101.047 433.17 101.047C433.16 101.047 433.17 101.027 433.17 101.017L436.59 98.937H436.6Z" fill="#686767"/>
<path d="M426.4 105.277L419.6 109.507C419.55 109.537 419.48 109.527 419.45 109.477C419.42 109.427 419.43 109.357 419.48 109.327L426.32 105.167C426.35 105.147 426.39 105.167 426.41 105.187C426.43 105.217 426.41 105.257 426.39 105.277H426.4Z" fill="#686767"/>
<path d="M412.81 113.727L406.01 117.947C405.92 118.007 405.8 117.977 405.75 117.887C405.7 117.797 405.72 117.677 405.81 117.627L412.65 113.467C412.72 113.427 412.81 113.447 412.86 113.517C412.9 113.587 412.88 113.677 412.81 113.727Z" fill="#686767"/>
<path d="M399.19 122.157L392.38 126.357C392.28 126.417 392.14 126.387 392.08 126.287C392.02 126.187 392.05 126.047 392.15 125.987L398.98 121.807C399.08 121.747 399.2 121.777 399.26 121.877C399.32 121.977 399.29 122.097 399.19 122.157Z" fill="#686767"/>
<path d="M385.57 130.567L378.76 134.767C378.64 134.837 378.49 134.807 378.42 134.687C378.35 134.567 378.38 134.417 378.5 134.347L385.33 130.167C385.44 130.097 385.58 130.137 385.65 130.247C385.72 130.357 385.68 130.497 385.57 130.567Z" fill="#686767"/>
<path d="M371.94 138.977L365.13 143.177C365 143.257 364.83 143.217 364.75 143.087C364.67 142.957 364.71 142.787 364.84 142.707L371.67 138.527C371.79 138.447 371.96 138.487 372.03 138.617C372.11 138.737 372.07 138.907 371.94 138.977Z" fill="#686767"/>
<path d="M358.31 147.377L351.5 151.577C351.36 151.667 351.17 151.617 351.08 151.477C350.99 151.337 351.04 151.147 351.18 151.057L358.01 146.877C358.15 146.797 358.33 146.837 358.41 146.977C358.49 147.117 358.45 147.297 358.31 147.377Z" fill="#686767"/>
<path d="M344.69 155.787L337.88 159.987C337.72 160.087 337.51 160.037 337.42 159.877C337.32 159.717 337.37 159.507 337.53 159.417L344.36 155.237C344.51 155.147 344.71 155.187 344.8 155.347C344.89 155.497 344.85 155.697 344.69 155.787Z" fill="#686767"/>
<path d="M331.06 164.197L324.25 168.397C324.08 168.507 323.85 168.447 323.75 168.277C323.64 168.107 323.7 167.877 323.87 167.777L330.7 163.597C330.87 163.497 331.08 163.547 331.18 163.717C331.28 163.887 331.23 164.097 331.06 164.197Z" fill="#686767"/>
<path d="M317.43 172.597L310.6 176.777C310.43 176.877 310.22 176.827 310.11 176.657C310.01 176.487 310.06 176.277 310.23 176.167L317.04 171.967C317.21 171.857 317.44 171.917 317.55 172.087C317.66 172.257 317.6 172.487 317.43 172.597Z" fill="#686767"/>
<path d="M303.77 180.947L296.94 185.127C296.79 185.217 296.59 185.177 296.49 185.017C296.4 184.867 296.44 184.667 296.6 184.577L303.41 180.377C303.57 180.277 303.78 180.327 303.88 180.487C303.98 180.647 303.93 180.857 303.77 180.957V180.947Z" fill="#686767"/>
<path d="M290.11 189.307L283.28 193.487C283.14 193.567 282.96 193.527 282.88 193.387C282.8 193.247 282.84 193.067 282.98 192.987L289.79 188.787C289.94 188.697 290.13 188.747 290.22 188.887C290.31 189.037 290.26 189.227 290.12 189.317L290.11 189.307Z" fill="#686767"/>
<path d="M276.46 197.667L269.63 201.847C269.51 201.927 269.34 201.887 269.27 201.757C269.19 201.637 269.23 201.467 269.36 201.397L276.17 197.197C276.3 197.117 276.47 197.157 276.55 197.287C276.63 197.417 276.59 197.587 276.46 197.667Z" fill="#686767"/>
<path d="M262.8 206.027L255.97 210.207C255.86 210.277 255.72 210.237 255.65 210.127C255.58 210.017 255.62 209.877 255.73 209.807L262.54 205.607C262.66 205.537 262.81 205.567 262.88 205.687C262.95 205.807 262.92 205.957 262.8 206.027Z" fill="#686767"/>
<path d="M249.14 214.377L242.31 218.557C242.21 218.617 242.09 218.587 242.03 218.487C241.97 218.387 242 218.267 242.1 218.207L248.91 214.007C249.01 213.947 249.15 213.977 249.21 214.077C249.27 214.177 249.24 214.317 249.14 214.377Z" fill="#686767"/>
<path d="M235.48 222.737L228.64 226.897C228.57 226.937 228.48 226.917 228.43 226.847C228.39 226.777 228.41 226.687 228.48 226.637L235.28 222.417C235.37 222.357 235.49 222.387 235.54 222.477C235.6 222.567 235.57 222.687 235.48 222.737Z" fill="#686767"/>
<path d="M221.8 231.047L214.96 235.197C214.96 235.197 214.89 235.197 214.87 235.177C214.85 235.147 214.87 235.107 214.89 235.087L221.69 230.857C221.74 230.827 221.81 230.837 221.84 230.887C221.87 230.937 221.86 231.007 221.81 231.037L221.8 231.047Z" fill="#686767"/>
<path d="M208.11 239.357L204.69 241.437L208.09 239.327C208.09 239.327 208.11 239.327 208.12 239.327C208.12 239.337 208.12 239.347 208.12 239.357H208.11Z" fill="#686767"/>
</g>
<path d="M372.49 73.8671L369.04 75.8871C369.04 75.8871 369.02 75.8871 369.01 75.8871C369.01 75.8771 369.01 75.8671 369.01 75.8571L372.48 73.8671H372.49Z" fill="#686767"/>
<path d="M362 80.0169L354.96 84.147C354.91 84.177 354.84 84.157 354.81 84.107C354.78 84.057 354.8 83.9869 354.85 83.9569L361.93 79.907C361.96 79.887 362 79.907 362.02 79.927C362.04 79.957 362.02 79.9969 362 80.0169Z" fill="#686767"/>
<path d="M347.92 88.267L340.88 92.3871C340.79 92.4371 340.67 92.4071 340.62 92.3171C340.57 92.2271 340.6 92.107 340.69 92.057L347.77 88.0071C347.84 87.9671 347.93 87.9871 347.97 88.0671C348.01 88.1371 347.99 88.227 347.92 88.267Z" fill="#686767"/>
<path d="M333.83 96.4871L326.78 100.587C326.68 100.647 326.54 100.617 326.48 100.507C326.42 100.397 326.45 100.267 326.56 100.207L333.63 96.1272C333.73 96.0672 333.85 96.1072 333.91 96.1972C333.97 96.2872 333.93 96.4171 333.84 96.4771L333.83 96.4871Z" fill="#686767"/>
<path d="M319.72 104.687L312.67 108.787C312.55 108.857 312.4 108.817 312.33 108.697C312.26 108.577 312.3 108.427 312.42 108.357L319.49 104.277C319.6 104.217 319.74 104.247 319.81 104.367C319.88 104.487 319.84 104.617 319.73 104.687H319.72Z" fill="#686767"/>
<path d="M305.62 112.897L298.57 116.997C298.44 117.077 298.27 117.027 298.19 116.897C298.11 116.767 298.16 116.597 298.29 116.517L305.36 112.437C305.49 112.367 305.65 112.407 305.72 112.537C305.79 112.667 305.75 112.827 305.62 112.897Z" fill="#686767"/>
<path d="M291.52 121.097L284.47 125.197C284.32 125.287 284.13 125.237 284.05 125.087C283.97 124.937 284.01 124.747 284.16 124.667L291.23 120.587C291.37 120.507 291.55 120.557 291.63 120.697C291.71 120.837 291.66 121.017 291.52 121.097Z" fill="#686767"/>
<path d="M277.41 129.297L270.36 133.397C270.2 133.487 269.99 133.437 269.9 133.277C269.81 133.117 269.86 132.907 270.02 132.817L277.09 128.737C277.24 128.647 277.44 128.697 277.53 128.857C277.62 129.007 277.57 129.207 277.41 129.297Z" fill="#686767"/>
<path d="M263.31 137.497L256.26 141.597C256.08 141.697 255.86 141.637 255.76 141.467C255.66 141.287 255.72 141.067 255.89 140.967L262.96 136.887C263.13 136.787 263.34 136.847 263.44 137.017C263.54 137.187 263.48 137.397 263.31 137.497Z" fill="#686767"/>
<path d="M249.2 145.687L242.13 149.767C241.96 149.867 241.74 149.807 241.65 149.637C241.55 149.467 241.61 149.257 241.78 149.157L248.83 145.057C249.01 144.957 249.23 145.017 249.33 145.187C249.43 145.367 249.37 145.587 249.2 145.687Z" fill="#686767"/>
<path d="M235.06 153.837L227.99 157.917C227.84 158.007 227.64 157.957 227.55 157.797C227.46 157.647 227.51 157.447 227.67 157.357L234.72 153.257C234.88 153.167 235.09 153.217 235.18 153.377C235.27 153.537 235.22 153.747 235.06 153.837Z" fill="#686767"/>
<path d="M220.93 161.987L213.86 166.067C213.72 166.147 213.54 166.097 213.46 165.957C213.38 165.817 213.43 165.637 213.57 165.557L220.62 161.457C220.77 161.367 220.96 161.417 221.04 161.567C221.13 161.717 221.08 161.907 220.93 161.987Z" fill="#686767"/>
<path d="M206.79 170.147L199.72 174.227C199.59 174.297 199.43 174.257 199.36 174.127C199.29 173.997 199.33 173.837 199.46 173.767L206.51 169.667C206.64 169.587 206.81 169.637 206.89 169.767C206.97 169.897 206.92 170.067 206.79 170.147Z" fill="#686767"/>
<path d="M192.66 178.297L185.59 182.377C185.48 182.437 185.33 182.407 185.27 182.287C185.21 182.177 185.24 182.027 185.36 181.967L192.41 177.867C192.53 177.797 192.68 177.837 192.75 177.957C192.82 178.077 192.78 178.227 192.66 178.297Z" fill="#686767"/>
<path d="M178.53 186.447L171.46 190.527C171.36 190.587 171.24 190.547 171.18 190.447C171.12 190.347 171.16 190.227 171.25 190.167L178.3 186.067C178.4 186.007 178.54 186.037 178.6 186.147C178.66 186.247 178.63 186.387 178.52 186.447H178.53Z" fill="#686767"/>
<path d="M164.39 194.597L157.31 198.647C157.24 198.687 157.15 198.667 157.1 198.587C157.06 198.517 157.08 198.427 157.15 198.377L164.19 194.257C164.28 194.207 164.4 194.237 164.45 194.327C164.5 194.417 164.47 194.537 164.38 194.587L164.39 194.597Z" fill="#686767"/>
<path d="M150.23 202.697L143.15 206.747C143.15 206.747 143.08 206.747 143.06 206.727C143.04 206.697 143.06 206.657 143.08 206.637L150.12 202.507C150.17 202.477 150.24 202.497 150.27 202.547C150.3 202.597 150.28 202.667 150.23 202.697Z" fill="#686767"/>
<path d="M136.07 210.797L132.6 212.787L136.05 210.767C136.05 210.767 136.07 210.767 136.08 210.767C136.08 210.777 136.08 210.787 136.08 210.797H136.07Z" fill="#686767"/>
<path d="M308.37 48.7971C230.77 92.5971 143.48 141.287 65.4301 184.277C143.02 140.477 230.32 91.7971 308.37 48.7971Z" fill="#686767"/>
<path d="M244.26 23.7371L240.77 25.6871C240.77 25.6871 240.75 25.6871 240.74 25.6871C240.74 25.6771 240.74 25.667 240.74 25.657L244.25 23.7471L244.26 23.7371Z" fill="#686767"/>
<path d="M233.6 29.6971L226.43 33.707C226.38 33.737 226.31 33.717 226.28 33.667C226.25 33.617 226.27 33.547 226.32 33.517L233.53 29.587C233.56 29.567 233.6 29.5871 233.62 29.6171C233.64 29.6471 233.62 29.687 233.6 29.707V29.6971Z" fill="#686767"/>
<path d="M219.26 37.7071L212.09 41.7071C212 41.7571 211.88 41.7271 211.83 41.6371C211.78 41.5471 211.81 41.4271 211.9 41.3771L219.11 37.4471C219.18 37.4071 219.27 37.4371 219.31 37.5071C219.35 37.5771 219.32 37.6671 219.25 37.7071H219.26Z" fill="#686767"/>
<path d="M204.91 45.6871L197.73 49.6671C197.62 49.7271 197.49 49.6871 197.43 49.5771C197.37 49.4671 197.41 49.3371 197.52 49.2771L204.72 45.3171C204.82 45.2671 204.94 45.2971 205 45.3971C205.05 45.4971 205.02 45.6171 204.92 45.6771L204.91 45.6871Z" fill="#686767"/>
<path d="M190.55 53.6571L183.37 57.6371C183.25 57.7071 183.1 57.6571 183.03 57.5371C182.96 57.4171 183.01 57.2671 183.13 57.1971L190.33 53.2371C190.44 53.1771 190.59 53.2171 190.65 53.3271C190.71 53.4371 190.67 53.5771 190.56 53.6471L190.55 53.6571Z" fill="#686767"/>
<path d="M176.18 61.617L169 65.597C168.87 65.667 168.7 65.627 168.62 65.487C168.55 65.357 168.59 65.187 168.73 65.107L175.93 61.147C176.06 61.077 176.22 61.127 176.29 61.247C176.36 61.377 176.31 61.537 176.19 61.607L176.18 61.617Z" fill="#686767"/>
<path d="M161.81 69.5772L154.63 73.5571C154.48 73.6371 154.29 73.5871 154.21 73.4371C154.13 73.2871 154.18 73.0971 154.33 73.0171L161.53 69.0571C161.67 68.9771 161.85 69.0271 161.93 69.1771C162.01 69.3271 161.96 69.4972 161.82 69.5772H161.81Z" fill="#686767"/>
<path d="M147.45 77.547L140.27 81.527C140.11 81.617 139.9 81.557 139.81 81.397C139.72 81.237 139.78 81.027 139.94 80.937L147.14 76.977C147.3 76.887 147.49 76.947 147.58 77.107C147.67 77.267 147.61 77.457 147.45 77.547Z" fill="#686767"/>
<path d="M133.08 85.5071L125.9 89.4871C125.72 89.5871 125.5 89.5171 125.4 89.3471C125.3 89.1671 125.37 88.9471 125.54 88.8471L132.74 84.8871C132.91 84.7971 133.12 84.8571 133.22 85.0271C133.32 85.1971 133.25 85.4071 133.08 85.5071Z" fill="#686767"/>
<path d="M118.71 93.457L111.51 97.4171C111.34 97.5071 111.12 97.4471 111.03 97.2771C110.94 97.1071 111 96.8871 111.17 96.7971L118.35 92.8171C118.53 92.7171 118.75 92.787 118.85 92.957C118.95 93.127 118.88 93.357 118.71 93.457Z" fill="#686767"/>
<path d="M104.32 101.367L97.12 105.327C96.96 105.417 96.77 105.357 96.68 105.197C96.59 105.037 96.65 104.847 96.81 104.757L103.99 100.777C104.15 100.687 104.36 100.747 104.45 100.907C104.54 101.067 104.48 101.277 104.32 101.367Z" fill="#686767"/>
<path d="M89.9301 109.277L82.7301 113.237C82.5901 113.317 82.4101 113.267 82.3301 113.117C82.2501 112.967 82.3001 112.797 82.4501 112.717L89.63 108.737C89.78 108.657 89.9701 108.707 90.0501 108.857C90.1301 109.007 90.0801 109.197 89.9301 109.277Z" fill="#686767"/>
<path d="M75.53 117.197L68.3301 121.157C68.2001 121.227 68.0401 121.177 67.9701 121.057C67.9001 120.927 67.9501 120.767 68.0701 120.697L75.25 116.717C75.38 116.647 75.55 116.687 75.63 116.827C75.7 116.957 75.66 117.127 75.52 117.207L75.53 117.197Z" fill="#686767"/>
<path d="M61.14 125.107L53.9401 129.067C53.8301 129.127 53.68 129.087 53.62 128.977C53.56 128.867 53.6001 128.717 53.7101 128.657L60.89 124.677C61.01 124.607 61.1601 124.657 61.2301 124.777C61.3001 124.897 61.25 125.047 61.13 125.117L61.14 125.107Z" fill="#686767"/>
<path d="M46.74 133.017L39.54 136.977C39.44 137.027 39.32 136.997 39.26 136.897C39.2 136.797 39.2401 136.677 39.3401 136.617L46.52 132.637C46.63 132.577 46.76 132.617 46.82 132.727C46.88 132.837 46.8401 132.967 46.7301 133.027L46.74 133.017Z" fill="#686767"/>
<path d="M32.3501 140.927L25.14 144.857C25.07 144.897 24.98 144.867 24.94 144.797C24.9 144.727 24.93 144.637 25 144.597L32.17 140.597C32.26 140.547 32.38 140.577 32.43 140.667C32.48 140.757 32.4501 140.877 32.3601 140.927H32.3501Z" fill="#686767"/>
<path d="M17.93 148.797L10.7201 152.727C10.7201 152.727 10.65 152.727 10.63 152.697C10.61 152.667 10.63 152.627 10.66 152.607L17.8301 148.597C17.8801 148.567 17.9501 148.587 17.9801 148.637C18.0101 148.687 17.9901 148.757 17.9401 148.787L17.93 148.797Z" fill="#686767"/>
<path d="M3.51001 156.657L0 158.567L3.48999 156.617C3.48999 156.617 3.51002 156.617 3.52002 156.617C3.52002 156.627 3.52002 156.637 3.52002 156.647L3.51001 156.657Z" fill="#686767"/>
</g>
<path d="M150.3 102.827C137.35 101.127 129.89 86.7772 133.67 71.3572C137.45 55.9372 149.97 43.6072 161.63 43.8172C161.63 43.8172 164.95 43.6872 167.39 44.5372C169.83 45.3872 180.57 53.2272 180.57 53.2272L173.45 62.4772L150.31 102.817L150.3 102.827Z" fill="white" stroke="#0A0101" stroke-miterlimit="10"/>
<path d="M153.96 105.677L141.14 98.7671C141.14 98.7671 122.12 106.337 117.37 127.647L115.61 151.947C115.61 151.947 115.79 155.997 117.9 158.467L130.23 165.867L152.77 139.807L153.97 105.687L153.96 105.677Z" fill="white" stroke="#0A0101" stroke-miterlimit="10"/>
<path d="M185.4 84.5271C185.4 84.5271 191.5 86.2571 194.32 91.1871C197.14 96.1271 199.78 128.527 199.78 128.527C199.78 128.527 198.08 135.567 192.59 137.327C187.1 139.087 137.09 166.557 137.09 166.557C137.09 166.557 128.64 169.027 126.88 160.567C126.88 160.567 123.55 122.507 146.95 110.377L185.4 84.5171V84.5271Z" fill="white" stroke="#A1A1A1" stroke-miterlimit="10"/>
<path d="M144.88 78.3971C141.1 93.8171 147.49 106.497 159.15 106.707C170.81 106.917 183.33 94.5871 187.11 79.1671C190.89 63.7471 184.5 51.0671 172.84 50.8571C161.18 50.6471 148.66 62.9771 144.88 78.3971Z" fill="white" stroke="#A1A1A1" stroke-miterlimit="10"/>
<path d="M241.13 65.0171C228.18 63.3171 220.72 48.9671 224.5 33.5471C228.28 18.1271 240.8 5.79713 252.46 6.00713C252.46 6.00713 255.78 5.87713 258.22 6.72713C260.66 7.57713 271.4 15.4171 271.4 15.4171L264.28 24.6671L241.14 65.0072L241.13 65.0171Z" fill="white" stroke="#0A0101" stroke-miterlimit="10"/>
<path d="M244.78 67.8672L231.96 60.9572C231.96 60.9572 212.94 68.5272 208.19 89.8372L206.43 114.137C206.43 114.137 206.61 118.187 208.72 120.657L221.05 128.057L243.59 101.997L244.79 67.8772L244.78 67.8672Z" fill="white" stroke="#0A0101" stroke-miterlimit="10"/>
<path d="M276.23 46.7172C276.23 46.7172 282.33 48.4472 285.15 53.3772C287.97 58.3172 290.61 90.7172 290.61 90.7172C290.61 90.7172 288.91 97.7572 283.42 99.5172C277.93 101.277 227.92 128.747 227.92 128.747C227.92 128.747 219.47 131.217 217.71 122.757C217.71 122.757 214.38 84.6972 237.78 72.5672L276.23 46.7072V46.7172Z" fill="white" stroke="#0A0101" stroke-miterlimit="10"/>
<path d="M235.7 40.5871C231.92 56.0071 238.31 68.6871 249.97 68.8971C261.63 69.1071 274.15 56.7771 277.93 41.3571C281.71 25.9371 275.32 13.2571 263.66 13.0471C252 12.8371 239.48 25.1671 235.7 40.5871Z" fill="white" stroke="#A1A1A1" stroke-miterlimit="10"/>
<path d="M202.63 114.397C185.86 112.197 176.2 93.6171 181.1 73.6471C186 53.6771 202.21 37.7071 217.31 37.9771C217.31 37.9771 221.61 37.8171 224.77 38.9171C227.93 40.0171 241.83 50.1771 241.83 50.1771L232.6 62.1571L202.63 114.407V114.397Z" fill="white" stroke="#0A0101" stroke-miterlimit="10"/>
<path d="M207.36 118.087L190.76 109.137C190.76 109.137 166.13 118.947 159.97 146.537L157.69 178.007C157.69 178.007 157.92 183.257 160.65 186.447L176.61 196.027L205.8 162.277L207.35 118.087H207.36Z" fill="white" stroke="#0A0101" stroke-miterlimit="10"/>
<path d="M248.08 90.6971C248.08 90.6971 255.98 92.9271 259.63 99.3271C263.28 105.717 266.7 147.677 266.7 147.677C266.7 147.677 264.5 156.797 257.39 159.077C250.28 161.357 185.51 196.937 185.51 196.937C185.51 196.937 174.56 200.127 172.28 189.187C172.28 189.187 167.97 139.897 198.28 124.197L248.07 90.7071L248.08 90.6971Z" fill="white" stroke="#A1A1A1" stroke-miterlimit="10"/>
<path d="M195.6 82.7471C190.7 102.717 198.98 119.137 214.08 119.417C229.18 119.697 245.39 103.727 250.29 83.7471C255.19 63.7771 246.91 47.3571 231.81 47.0771C216.71 46.7971 200.5 62.7671 195.6 82.7471Z" fill="white" stroke="#A1A1A1" stroke-miterlimit="10"/>
<path d="M324.33 165.147L303.13 142.067C304.09 140.687 305 139.237 305.87 137.747C317.95 116.817 315.96 93.0371 301.42 84.6471C286.88 76.2471 265.29 86.4171 253.21 107.347C241.13 128.277 243.12 152.057 257.66 160.447C268.4 166.647 282.97 162.727 294.72 151.837C301.17 158.957 307.62 166.067 314.07 173.187C316.33 175.677 320.12 176.227 322.87 174.297C323.12 174.127 323.36 173.937 323.58 173.727C324.55 172.847 325.15 171.837 325.51 170.867C326.24 168.907 325.74 166.707 324.33 165.167V165.147Z" fill="#00A649"/>
<path d="M331.71 166.207L310.51 143.127C311.47 141.747 312.38 140.297 313.25 138.807C325.33 117.877 323.34 94.097 308.8 85.707C294.26 77.307 272.67 87.477 260.59 108.407C248.51 129.337 250.5 153.117 265.04 161.507C275.78 167.707 290.35 163.787 302.1 152.897C308.55 160.017 315 167.127 321.45 174.247C323.71 176.737 327.5 177.287 330.25 175.357C330.5 175.187 330.74 174.997 330.96 174.787C331.93 173.907 332.53 172.897 332.89 171.927C333.62 169.967 333.12 167.767 331.71 166.227V166.207Z" fill="white" stroke="#A1A1A1" stroke-miterlimit="10"/>
<path d="M306.623 134.181C315.706 118.45 314.395 100.69 303.695 94.5124C292.996 88.3351 276.96 96.0799 267.877 111.811C258.795 127.542 260.106 145.302 270.805 151.479C281.505 157.657 297.541 149.912 306.623 134.181Z" fill="#FFFFFC" stroke="#0A0101" stroke-miterlimit="10"/>
<path d="M279.227 125.409C279.687 122.832 278.998 120.553 277.688 120.319C276.378 120.085 274.942 121.985 274.482 124.562C274.022 127.139 274.712 129.418 276.022 129.652C277.332 129.885 278.767 127.986 279.227 125.409Z" fill="black"/>
<path d="M296.841 116.472C297.301 113.895 296.612 111.616 295.301 111.382C293.991 111.148 292.556 113.048 292.096 115.625C291.636 118.202 292.325 120.481 293.635 120.715C294.946 120.949 296.381 119.049 296.841 116.472Z" fill="black"/>
<path d="M281.26 139.717C283.46 134.027 287.99 130.597 292.11 131.027C292.97 131.117 294.58 131.457 296.36 132.977" fill="#FFFFFC"/>
<path d="M281.26 139.717C283.46 134.027 287.99 130.597 292.11 131.027C292.97 131.117 294.58 131.457 296.36 132.977" stroke="#0A0101" stroke-width="2" stroke-miterlimit="10" stroke-linecap="round"/>
</svg>
