<svg width="466" height="253" viewBox="0 0 466 253" fill="none" xmlns="http://www.w3.org/2000/svg">
<g opacity="0.51">
<path d="M81.8298 81.4491C188.3 116.079 307.57 155.409 413.75 190.919C307.28 156.289 188.01 116.959 81.8298 81.4491Z" fill="#686767"/>
<path d="M162.51 46.229L173.96 49.8391L173.92 49.9491L162.51 46.229Z" fill="#686767"/>
<path d="M185.4 53.4491L196.84 57.0591L196.74 57.3791L185.33 53.6591L185.4 53.4491Z" fill="#686767"/>
<path d="M208.28 60.6891L219.71 64.3391L219.58 64.7491L208.16 61.069L208.28 60.6891Z" fill="#686767"/>
<path d="M231.15 67.979L242.58 71.6291L242.42 72.119L231 68.4391L231.15 67.979Z" fill="#686767"/>
<path d="M254.01 75.2691L265.45 78.9191L265.27 79.479L253.84 75.7991L254.01 75.2691Z" fill="#686767"/>
<path d="M276.88 82.569L288.31 86.209L288.11 86.8391L276.69 83.1591L276.88 82.569Z" fill="#686767"/>
<path d="M299.74 89.8591L311.18 93.4991L310.95 94.1991L299.53 90.5191L299.74 89.8591Z" fill="#686767"/>
<path d="M322.6 97.1691L334.02 100.849L333.81 101.509L322.38 97.8591L322.6 97.1691Z" fill="#686767"/>
<path d="M345.44 104.529L356.87 108.219L356.68 108.799L345.25 105.149L345.44 104.529Z" fill="#686767"/>
<path d="M368.29 111.899L379.71 115.579L379.55 116.089L368.11 112.439L368.29 111.899Z" fill="#686767"/>
<path d="M391.13 119.259L402.55 122.939L402.41 123.379L390.98 119.729L391.13 119.259Z" fill="#686767"/>
<path d="M413.97 126.619L425.39 130.299L425.28 130.669L413.85 127.019L413.97 126.619Z" fill="#686767"/>
<path d="M436.81 134.019L448.22 137.729L448.17 137.889L436.72 134.279L436.81 134.019Z" fill="#686767"/>
<path d="M459.63 141.449L465.45 143.349L459.61 141.499L459.63 141.449Z" fill="#686767"/>
<path d="M4.13989 124.529L11.7699 126.929C11.7699 126.929 11.7999 126.949 11.7899 126.969C11.7899 126.989 11.77 126.999 11.75 126.989L4.13989 124.529Z" fill="#686767"/>
<path d="M19.4099 129.329L27.04 131.729C27.04 131.729 27.12 131.799 27.1 131.849C27.08 131.899 27.03 131.929 26.98 131.909L19.37 129.449C19.34 129.439 19.32 129.399 19.33 129.369C19.34 129.339 19.3799 129.319 19.4099 129.329Z" fill="#686767"/>
<path d="M34.6699 134.129L42.2999 136.529C42.3799 136.559 42.4299 136.639 42.3999 136.729C42.3699 136.809 42.2899 136.859 42.1999 136.829L34.5899 134.369C34.5199 134.349 34.49 134.279 34.51 134.209C34.53 134.139 34.5999 134.109 34.6699 134.129Z" fill="#686767"/>
<path d="M49.9298 138.929L57.5598 141.349C57.6598 141.379 57.7198 141.489 57.6898 141.599C57.6598 141.699 57.5498 141.759 57.4398 141.729L49.8198 139.289C49.7198 139.259 49.6698 139.149 49.6998 139.049C49.7298 138.949 49.8398 138.899 49.9398 138.929H49.9298Z" fill="#686767"/>
<path d="M65.1901 143.769L72.8201 146.189C72.9401 146.229 73.0001 146.349 72.9601 146.469C72.9201 146.589 72.8001 146.649 72.6801 146.609L65.0601 144.169C64.9501 144.129 64.89 144.019 64.92 143.909C64.96 143.799 65.0701 143.739 65.1801 143.769H65.1901Z" fill="#686767"/>
<path d="M80.44 148.599L88.07 151.019C88.2 151.059 88.27 151.199 88.23 151.319C88.19 151.449 88.05 151.519 87.93 151.479L80.31 149.039C80.19 148.999 80.12 148.869 80.16 148.749C80.2 148.629 80.33 148.559 80.45 148.599H80.44Z" fill="#686767"/>
<path d="M95.69 153.439L103.32 155.859C103.46 155.899 103.54 156.049 103.49 156.189C103.44 156.329 103.3 156.409 103.16 156.359L95.54 153.919C95.41 153.879 95.33 153.739 95.38 153.599C95.42 153.469 95.56 153.389 95.7 153.439H95.69Z" fill="#686767"/>
<path d="M110.94 158.279L118.57 160.699C118.72 160.749 118.8 160.909 118.76 161.059C118.71 161.209 118.55 161.289 118.4 161.249L110.78 158.809C110.64 158.759 110.56 158.609 110.6 158.469C110.65 158.329 110.8 158.249 110.94 158.289V158.279Z" fill="#686767"/>
<path d="M126.19 163.119L133.82 165.539C133.98 165.589 134.07 165.759 134.02 165.919C133.97 166.079 133.8 166.169 133.64 166.119L126.02 163.679C125.86 163.629 125.78 163.459 125.83 163.309C125.88 163.149 126.05 163.069 126.2 163.119H126.19Z" fill="#686767"/>
<path d="M141.44 167.959L149.07 170.379C149.24 170.429 149.34 170.619 149.28 170.789C149.23 170.959 149.04 171.059 148.87 170.999L141.25 168.559C141.08 168.509 140.99 168.329 141.04 168.159C141.09 167.989 141.27 167.899 141.44 167.949V167.959Z" fill="#686767"/>
<path d="M156.69 172.799L164.32 175.219C164.5 175.279 164.61 175.469 164.55 175.659C164.49 175.839 164.3 175.949 164.11 175.889L156.49 173.449C156.31 173.389 156.21 173.199 156.27 173.019C156.33 172.839 156.52 172.739 156.69 172.799Z" fill="#686767"/>
<path d="M171.94 177.639L179.57 180.059C179.77 180.119 179.87 180.329 179.81 180.529C179.75 180.729 179.54 180.829 179.34 180.769L171.72 178.329C171.53 178.269 171.43 178.069 171.49 177.879C171.55 177.689 171.75 177.589 171.94 177.649V177.639Z" fill="#686767"/>
<path d="M187.19 182.489L194.81 184.929C195 184.989 195.1 185.189 195.04 185.379C194.98 185.569 194.78 185.669 194.59 185.609L186.96 183.189C186.77 183.129 186.66 182.919 186.72 182.729C186.78 182.539 186.99 182.429 187.18 182.489H187.19Z" fill="#686767"/>
<path d="M202.42 187.369L210.04 189.809C210.22 189.869 210.31 190.059 210.26 190.229C210.2 190.409 210.02 190.499 209.84 190.449L202.21 188.029C202.03 187.969 201.93 187.779 201.98 187.589C202.04 187.409 202.23 187.309 202.42 187.359V187.369Z" fill="#686767"/>
<path d="M217.66 192.249L225.28 194.689C225.45 194.739 225.54 194.919 225.48 195.089C225.42 195.259 225.25 195.349 225.09 195.289L217.46 192.869C217.29 192.819 217.19 192.629 217.25 192.459C217.3 192.289 217.49 192.189 217.66 192.249Z" fill="#686767"/>
<path d="M232.9 197.129L240.52 199.569C240.67 199.619 240.76 199.779 240.71 199.939C240.66 200.099 240.5 200.179 240.34 200.129L232.71 197.709C232.55 197.659 232.46 197.489 232.51 197.329C232.56 197.169 232.73 197.079 232.89 197.129H232.9Z" fill="#686767"/>
<path d="M248.14 202.009L255.76 204.449C255.9 204.499 255.98 204.649 255.94 204.789C255.89 204.929 255.74 205.009 255.6 204.969L247.97 202.549C247.82 202.499 247.74 202.339 247.79 202.199C247.84 202.049 248 201.969 248.14 202.019V202.009Z" fill="#686767"/>
<path d="M263.37 206.889L270.99 209.329C271.12 209.369 271.19 209.509 271.15 209.639C271.11 209.769 270.97 209.839 270.84 209.799L263.21 207.379C263.07 207.339 263 207.189 263.04 207.049C263.08 206.909 263.23 206.839 263.37 206.879V206.889Z" fill="#686767"/>
<path d="M278.61 211.769L286.23 214.209C286.35 214.249 286.42 214.379 286.38 214.499C286.34 214.619 286.21 214.689 286.09 214.649L278.46 212.229C278.33 212.189 278.27 212.059 278.3 211.929C278.34 211.799 278.47 211.739 278.6 211.769H278.61Z" fill="#686767"/>
<path d="M293.85 216.649L301.47 219.089C301.58 219.119 301.64 219.239 301.6 219.349C301.57 219.459 301.45 219.519 301.34 219.479L293.71 217.059C293.6 217.019 293.53 216.899 293.57 216.789C293.61 216.679 293.73 216.609 293.84 216.649H293.85Z" fill="#686767"/>
<path d="M309.09 221.529L316.71 223.979C316.8 224.009 316.85 224.109 316.82 224.199C316.79 224.289 316.69 224.339 316.6 224.309L308.97 221.899C308.87 221.869 308.81 221.759 308.84 221.659C308.87 221.559 308.98 221.499 309.08 221.529H309.09Z" fill="#686767"/>
<path d="M324.32 226.439L331.93 228.899C331.99 228.919 332.02 228.979 332 229.039C331.98 229.099 331.92 229.129 331.86 229.109L324.23 226.709C324.15 226.689 324.11 226.599 324.13 226.529C324.15 226.449 324.24 226.409 324.31 226.429L324.32 226.439Z" fill="#686767"/>
<path d="M339.54 231.359L347.15 233.819C347.15 233.819 347.19 233.859 347.18 233.879C347.18 233.909 347.14 233.919 347.12 233.909L339.49 231.509C339.49 231.509 339.42 231.449 339.44 231.409C339.46 231.369 339.5 231.339 339.54 231.359Z" fill="#686767"/>
<path d="M354.77 236.279L359.58 237.839L354.75 236.319C354.75 236.319 354.73 236.309 354.74 236.289C354.75 236.269 354.75 236.269 354.76 236.279H354.77Z" fill="#686767"/>
<g opacity="0.61">
<path d="M436.6 110.469L433.2 112.579C433.2 112.579 433.18 112.579 433.17 112.579C433.16 112.579 433.17 112.559 433.17 112.549L436.59 110.469H436.6Z" fill="#686767"/>
<path d="M426.41 116.819L419.61 121.049C419.56 121.079 419.49 121.069 419.46 121.019C419.43 120.969 419.44 120.899 419.49 120.869L426.33 116.709C426.36 116.689 426.4 116.709 426.42 116.729C426.44 116.759 426.42 116.799 426.4 116.819H426.41Z" fill="#686767"/>
<path d="M412.81 125.269L406.01 129.489C405.92 129.549 405.8 129.519 405.75 129.429C405.7 129.339 405.72 129.219 405.81 129.169L412.65 125.009C412.72 124.969 412.81 124.989 412.86 125.059C412.9 125.129 412.88 125.219 412.81 125.269Z" fill="#686767"/>
<path d="M399.2 133.699L392.39 137.899C392.29 137.959 392.15 137.929 392.09 137.829C392.03 137.729 392.06 137.589 392.16 137.529L398.99 133.349C399.09 133.289 399.21 133.319 399.27 133.419C399.33 133.519 399.3 133.639 399.2 133.699Z" fill="#686767"/>
<path d="M385.57 142.109L378.76 146.309C378.64 146.379 378.49 146.349 378.42 146.229C378.35 146.109 378.38 145.959 378.5 145.889L385.33 141.709C385.44 141.639 385.58 141.679 385.65 141.789C385.72 141.899 385.68 142.039 385.57 142.109Z" fill="#686767"/>
<path d="M371.94 150.519L365.13 154.719C365 154.799 364.83 154.759 364.75 154.629C364.67 154.499 364.71 154.329 364.84 154.249L371.67 150.069C371.79 149.989 371.96 150.029 372.03 150.159C372.11 150.279 372.07 150.449 371.94 150.519Z" fill="#686767"/>
<path d="M358.32 158.919L351.51 163.119C351.37 163.209 351.18 163.159 351.09 163.019C351 162.879 351.05 162.689 351.19 162.599L358.02 158.419C358.16 158.339 358.34 158.379 358.42 158.519C358.5 158.659 358.46 158.839 358.32 158.919Z" fill="#686767"/>
<path d="M344.69 167.329L337.88 171.529C337.72 171.629 337.51 171.579 337.42 171.419C337.32 171.259 337.37 171.049 337.53 170.959L344.36 166.779C344.51 166.689 344.71 166.729 344.8 166.889C344.89 167.039 344.85 167.239 344.69 167.329Z" fill="#686767"/>
<path d="M331.07 175.739L324.26 179.939C324.09 180.049 323.86 179.989 323.76 179.819C323.65 179.649 323.71 179.419 323.88 179.319L330.71 175.139C330.88 175.039 331.09 175.089 331.19 175.259C331.29 175.429 331.24 175.639 331.07 175.739Z" fill="#686767"/>
<path d="M317.43 184.139L310.6 188.319C310.43 188.419 310.22 188.369 310.11 188.199C310 188.029 310.06 187.819 310.23 187.709L317.04 183.509C317.21 183.399 317.44 183.459 317.55 183.629C317.66 183.799 317.6 184.029 317.43 184.139Z" fill="#686767"/>
<path d="M303.78 192.489L296.95 196.669C296.8 196.759 296.6 196.719 296.5 196.559C296.4 196.399 296.45 196.209 296.61 196.119L303.42 191.919C303.58 191.819 303.79 191.869 303.89 192.029C303.99 192.189 303.94 192.399 303.78 192.499V192.489Z" fill="#686767"/>
<path d="M290.12 200.849L283.29 205.029C283.15 205.109 282.97 205.069 282.89 204.929C282.81 204.789 282.85 204.609 282.99 204.529L289.8 200.329C289.95 200.239 290.14 200.289 290.23 200.429C290.32 200.579 290.27 200.769 290.13 200.859L290.12 200.849Z" fill="#686767"/>
<path d="M276.46 209.209L269.63 213.389C269.51 213.469 269.34 213.429 269.27 213.299C269.19 213.179 269.23 213.009 269.36 212.939L276.17 208.739C276.3 208.659 276.47 208.699 276.55 208.829C276.63 208.959 276.59 209.129 276.46 209.209Z" fill="#686767"/>
<path d="M262.8 217.559L255.97 221.739C255.86 221.809 255.72 221.769 255.65 221.659C255.58 221.549 255.62 221.409 255.73 221.339L262.54 217.139C262.66 217.069 262.81 217.099 262.88 217.219C262.95 217.339 262.92 217.489 262.8 217.559Z" fill="#686767"/>
<path d="M249.15 225.919L242.32 230.099C242.22 230.159 242.1 230.129 242.04 230.029C241.98 229.929 242.01 229.809 242.11 229.749L248.92 225.549C249.02 225.489 249.16 225.519 249.22 225.619C249.28 225.719 249.25 225.859 249.15 225.919Z" fill="#686767"/>
<path d="M235.49 234.279L228.65 238.439C228.58 238.479 228.49 238.459 228.44 238.389C228.4 238.319 228.42 238.229 228.49 238.179L235.29 233.959C235.38 233.899 235.5 233.929 235.55 234.019C235.61 234.109 235.58 234.229 235.49 234.279Z" fill="#686767"/>
<path d="M221.8 242.589L214.96 246.739C214.96 246.739 214.89 246.739 214.87 246.719C214.85 246.689 214.87 246.649 214.89 246.629L221.69 242.399C221.74 242.369 221.81 242.379 221.84 242.429C221.87 242.479 221.86 242.549 221.81 242.579L221.8 242.589Z" fill="#686767"/>
<path d="M208.12 250.899L204.7 252.979L208.1 250.869C208.1 250.869 208.12 250.869 208.13 250.869C208.13 250.879 208.13 250.889 208.13 250.899H208.12Z" fill="#686767"/>
</g>
<path d="M372.49 85.4091L369.04 87.429C369.04 87.429 369.02 87.429 369.01 87.429C369.01 87.419 369.01 87.409 369.01 87.399L372.48 85.4091H372.49Z" fill="#686767"/>
<path d="M362 91.559L354.96 95.6891C354.91 95.7191 354.84 95.699 354.81 95.649C354.78 95.599 354.8 95.5291 354.85 95.4991L361.93 91.449C361.96 91.429 362 91.4491 362.02 91.4691C362.04 91.4991 362.02 91.539 362 91.559Z" fill="#686767"/>
<path d="M347.93 99.809L340.89 103.929C340.8 103.979 340.68 103.949 340.63 103.859C340.58 103.769 340.61 103.649 340.7 103.599L347.78 99.5491C347.85 99.5091 347.94 99.5291 347.98 99.6091C348.02 99.6791 348 99.769 347.93 99.809Z" fill="#686767"/>
<path d="M333.83 108.029L326.78 112.129C326.68 112.189 326.54 112.159 326.48 112.049C326.42 111.949 326.45 111.809 326.56 111.749L333.63 107.669C333.73 107.609 333.85 107.649 333.91 107.739C333.97 107.829 333.93 107.959 333.84 108.019L333.83 108.029Z" fill="#686767"/>
<path d="M319.73 116.229L312.68 120.329C312.56 120.399 312.41 120.359 312.34 120.239C312.27 120.119 312.31 119.969 312.43 119.899L319.5 115.819C319.61 115.759 319.75 115.789 319.82 115.909C319.88 116.019 319.85 116.159 319.74 116.229H319.73Z" fill="#686767"/>
<path d="M305.62 124.439L298.57 128.539C298.44 128.619 298.27 128.569 298.19 128.439C298.11 128.309 298.16 128.139 298.29 128.059L305.36 123.979C305.49 123.909 305.65 123.949 305.72 124.079C305.79 124.209 305.75 124.369 305.62 124.439Z" fill="#686767"/>
<path d="M291.52 132.639L284.47 136.739C284.32 136.829 284.13 136.779 284.05 136.629C283.96 136.479 284.01 136.289 284.16 136.209L291.23 132.129C291.37 132.049 291.55 132.099 291.63 132.239C291.71 132.379 291.66 132.559 291.52 132.639Z" fill="#686767"/>
<path d="M277.42 140.839L270.37 144.939C270.21 145.029 270 144.979 269.91 144.819C269.82 144.659 269.87 144.449 270.03 144.359L277.1 140.279C277.25 140.189 277.45 140.239 277.54 140.399C277.63 140.559 277.58 140.749 277.42 140.839Z" fill="#686767"/>
<path d="M263.31 149.039L256.26 153.139C256.08 153.239 255.86 153.179 255.76 153.009C255.66 152.829 255.72 152.609 255.89 152.509L262.96 148.429C263.13 148.329 263.34 148.389 263.44 148.559C263.54 148.729 263.48 148.939 263.31 149.039Z" fill="#686767"/>
<path d="M249.2 157.229L242.13 161.309C241.96 161.409 241.74 161.349 241.65 161.179C241.55 161.009 241.61 160.799 241.78 160.699L248.83 156.599C249.01 156.499 249.23 156.559 249.33 156.729C249.43 156.899 249.37 157.129 249.2 157.229Z" fill="#686767"/>
<path d="M235.07 165.379L228 169.459C227.85 169.549 227.65 169.499 227.56 169.339C227.47 169.189 227.52 168.989 227.68 168.899L234.73 164.799C234.89 164.709 235.1 164.759 235.19 164.919C235.28 165.079 235.23 165.289 235.07 165.379Z" fill="#686767"/>
<path d="M220.93 173.529L213.86 177.609C213.72 177.689 213.54 177.639 213.46 177.499C213.38 177.359 213.43 177.179 213.57 177.099L220.62 172.999C220.77 172.909 220.96 172.959 221.04 173.109C221.13 173.259 221.08 173.449 220.93 173.529Z" fill="#686767"/>
<path d="M206.8 181.679L199.73 185.759C199.6 185.829 199.44 185.789 199.37 185.659C199.3 185.529 199.34 185.369 199.47 185.299L206.52 181.199C206.65 181.119 206.82 181.169 206.9 181.299C206.98 181.429 206.93 181.599 206.8 181.679Z" fill="#686767"/>
<path d="M192.66 189.829L185.59 193.909C185.48 193.969 185.33 193.939 185.27 193.819C185.21 193.709 185.24 193.559 185.36 193.499L192.41 189.399C192.53 189.329 192.68 189.369 192.75 189.489C192.82 189.609 192.78 189.759 192.66 189.829Z" fill="#686767"/>
<path d="M178.53 197.979L171.46 202.059C171.36 202.119 171.24 202.079 171.18 201.989C171.12 201.899 171.16 201.769 171.25 201.709L178.3 197.609C178.4 197.549 178.54 197.579 178.6 197.689C178.66 197.789 178.63 197.929 178.52 197.989L178.53 197.979Z" fill="#686767"/>
<path d="M164.4 206.139L157.32 210.189C157.25 210.229 157.16 210.209 157.11 210.129C157.07 210.059 157.09 209.969 157.16 209.919L164.2 205.799C164.29 205.749 164.41 205.779 164.46 205.869C164.51 205.959 164.48 206.079 164.39 206.129L164.4 206.139Z" fill="#686767"/>
<path d="M150.24 214.239L143.16 218.289C143.16 218.289 143.09 218.289 143.07 218.269C143.05 218.239 143.07 218.199 143.09 218.179L150.13 214.049C150.18 214.019 150.25 214.039 150.28 214.089C150.31 214.139 150.29 214.209 150.24 214.239Z" fill="#686767"/>
<path d="M136.07 222.339L132.6 224.329L136.05 222.309C136.05 222.309 136.07 222.309 136.08 222.309C136.08 222.319 136.08 222.329 136.08 222.339H136.07Z" fill="#686767"/>
<path d="M308.38 60.3391C230.78 104.139 143.49 152.829 65.4399 195.819C143.03 152.019 230.33 103.339 308.38 60.3391Z" fill="#686767"/>
<path d="M244.27 35.2791L240.78 37.229C240.78 37.229 240.76 37.229 240.75 37.229C240.75 37.219 240.75 37.2091 240.75 37.1991L244.26 35.2791H244.27Z" fill="#686767"/>
<path d="M233.61 41.229L226.44 45.2391C226.39 45.2691 226.32 45.249 226.29 45.199C226.26 45.149 226.28 45.0791 226.33 45.0491L233.54 41.119C233.57 41.099 233.61 41.119 233.63 41.149C233.65 41.179 233.63 41.2191 233.61 41.2391V41.229Z" fill="#686767"/>
<path d="M219.27 49.2491L212.1 53.2491C212.01 53.2991 211.89 53.269 211.84 53.179C211.79 53.089 211.82 52.9691 211.91 52.9191L219.12 48.9791C219.19 48.9391 219.28 48.969 219.32 49.039C219.36 49.109 219.33 49.1991 219.26 49.2391L219.27 49.2491Z" fill="#686767"/>
<path d="M204.91 57.229L197.73 61.209C197.62 61.269 197.49 61.229 197.43 61.119C197.37 61.009 197.41 60.879 197.52 60.819L204.72 56.859C204.82 56.809 204.94 56.8391 205 56.9391C205.05 57.0391 205.02 57.159 204.92 57.219L204.91 57.229Z" fill="#686767"/>
<path d="M190.55 65.199L183.37 69.179C183.25 69.249 183.1 69.199 183.03 69.079C182.96 68.959 183.01 68.8091 183.13 68.7391L190.33 64.779C190.44 64.719 190.59 64.759 190.65 64.869C190.71 64.979 190.67 65.119 190.56 65.189L190.55 65.199Z" fill="#686767"/>
<path d="M176.18 73.1591L169 77.1391C168.87 77.2091 168.7 77.1691 168.62 77.0291C168.54 76.8891 168.59 76.729 168.73 76.649L175.93 72.6891C176.06 72.6191 176.22 72.669 176.29 72.789C176.36 72.909 176.31 73.079 176.19 73.149L176.18 73.1591Z" fill="#686767"/>
<path d="M161.82 81.1191L154.64 85.0991C154.49 85.1791 154.3 85.1291 154.22 84.9791C154.14 84.8291 154.19 84.6391 154.34 84.5591L161.54 80.5991C161.68 80.5191 161.86 80.5691 161.94 80.7191C162.02 80.8591 161.97 81.0391 161.83 81.1191H161.82Z" fill="#686767"/>
<path d="M147.45 89.0891L140.27 93.069C140.11 93.159 139.9 93.0991 139.81 92.9391C139.72 92.7791 139.78 92.5691 139.94 92.4791L147.14 88.5191C147.3 88.4291 147.49 88.4891 147.58 88.6491C147.67 88.8091 147.61 88.9991 147.45 89.0891Z" fill="#686767"/>
<path d="M133.09 97.0491L125.91 101.029C125.73 101.129 125.51 101.059 125.41 100.889C125.31 100.719 125.38 100.489 125.55 100.389L132.75 96.429C132.92 96.339 133.13 96.399 133.23 96.569C133.33 96.739 133.26 96.9491 133.09 97.0491Z" fill="#686767"/>
<path d="M118.72 104.999L111.52 108.959C111.35 109.049 111.13 108.989 111.04 108.819C110.95 108.649 111.01 108.429 111.18 108.339L118.36 104.359C118.54 104.259 118.76 104.329 118.86 104.499C118.96 104.679 118.89 104.899 118.72 104.999Z" fill="#686767"/>
<path d="M104.32 112.909L97.12 116.869C96.96 116.959 96.7699 116.899 96.6799 116.739C96.5899 116.579 96.6499 116.389 96.8099 116.299L103.99 112.319C104.15 112.229 104.36 112.289 104.45 112.449C104.54 112.609 104.48 112.819 104.32 112.909Z" fill="#686767"/>
<path d="M89.9301 120.819L82.7301 124.779C82.5901 124.859 82.4101 124.809 82.3301 124.659C82.2501 124.509 82.3001 124.339 82.4501 124.259L89.6301 120.279C89.7801 120.199 89.9701 120.249 90.0501 120.399C90.1301 120.549 90.0801 120.739 89.9301 120.819Z" fill="#686767"/>
<path d="M75.5399 128.729L68.34 132.689C68.21 132.759 68.05 132.709 67.98 132.589C67.91 132.459 67.96 132.299 68.08 132.229L75.26 128.249C75.39 128.179 75.5599 128.219 75.6399 128.359C75.7199 128.499 75.6699 128.659 75.5299 128.739L75.5399 128.729Z" fill="#686767"/>
<path d="M61.1398 136.649L53.9399 140.609C53.8299 140.669 53.6799 140.629 53.6199 140.519C53.5599 140.409 53.5999 140.259 53.7099 140.199L60.8898 136.219C61.0098 136.149 61.1599 136.199 61.2299 136.319C61.2999 136.439 61.2499 136.589 61.1299 136.659L61.1398 136.649Z" fill="#686767"/>
<path d="M46.7502 144.559L39.5501 148.519C39.4501 148.569 39.3301 148.539 39.2701 148.439C39.2201 148.339 39.2501 148.219 39.3501 148.159L46.5301 144.179C46.6401 144.119 46.7701 144.159 46.8301 144.269C46.8901 144.379 46.8502 144.509 46.7402 144.569L46.7502 144.559Z" fill="#686767"/>
<path d="M32.3501 152.469L25.14 156.399C25.07 156.439 24.98 156.409 24.94 156.339C24.9 156.269 24.9301 156.179 25.0001 156.139L32.17 152.139C32.26 152.089 32.38 152.119 32.43 152.209C32.48 152.299 32.4501 152.419 32.3601 152.469H32.3501Z" fill="#686767"/>
<path d="M17.9399 160.329L10.73 164.259C10.73 164.259 10.6599 164.259 10.6399 164.229C10.6199 164.199 10.6399 164.159 10.6699 164.139L17.84 160.129C17.89 160.099 17.96 160.119 17.99 160.169C18.02 160.219 17.9999 160.289 17.9499 160.319L17.9399 160.329Z" fill="#686767"/>
<path d="M3.51001 168.199L0 170.109L3.48999 168.159C3.48999 168.159 3.5099 168.159 3.5199 168.159C3.5199 168.169 3.5199 168.179 3.5199 168.189L3.51001 168.199Z" fill="#686767"/>
</g>
<path d="M268.19 134.589C266.04 138.729 263.68 142.819 260.44 146.169C251.86 155.069 238.6 157.439 226.24 158.019C219.45 158.339 212.26 158.159 206.47 154.599C203.98 153.069 201.88 150.969 200.08 148.669C193.2 139.859 190.85 128.279 190.71 117.099C190.57 105.919 192.41 94.8191 192.94 83.6591C193.25 77.0991 193.15 70.3691 195.41 64.2091C198.87 54.7691 207.7 47.9191 217.39 45.2491C236.09 40.0991 255.65 48.9491 272.21 57.0491C287.37 64.4691 283.25 87.1791 280.46 100.729C278.03 112.529 273.73 123.919 268.18 134.589H268.19Z" fill="white"/>
<path d="M255.65 14.5291L248.6 12.0991C245.58 11.0591 242.25 11.3591 239.47 12.9291L175.06 49.1191C171.16 51.2491 168.74 55.3291 168.74 59.7691V183.769C168.74 186.349 170.21 188.699 172.53 189.819L181.22 194.029" fill="white"/>
<path d="M255.65 14.5291L248.6 12.0991C245.58 11.0591 242.25 11.3591 239.47 12.9291L175.06 49.1191C171.16 51.2491 168.74 55.3291 168.74 59.7691V183.769C168.74 186.349 170.21 188.699 172.53 189.819L181.22 194.029" stroke="#080101" stroke-miterlimit="10"/>
<path d="M248.66 157.099L185.19 193.919C182.41 195.529 178.94 193.529 178.94 190.319V64.009C178.94 59.899 181.16 56.0991 184.74 54.0791L254.05 14.949C255.16 14.319 256.53 14.3791 257.58 15.0991L281.67 30.419C282.75 31.109 283.41 32.299 283.41 33.589V129.289C283.41 134.279 280.73 138.879 276.4 141.339L248.67 157.099H248.66Z" fill="white" stroke="#A2A2A2" stroke-width="0.75" stroke-miterlimit="10"/>
<path d="M255.65 14.459V43.509C255.65 45.439 257.75 46.639 259.42 45.649L282.91 31.6991" stroke="#A2A2A2" stroke-width="0.75" stroke-miterlimit="10"/>
<path d="M238.29 47.2791L194.81 72.9991C192.88 75.0291 192.21 77.6591 193.13 79.6291C193.13 79.6291 193.13 79.6291 193.13 79.6391C193.7 80.8491 195.2 81.2891 196.36 80.6291C210.95 72.2291 225.55 63.8391 240.14 55.4391C242.56 53.0191 243.16 49.9091 241.93 48.0791C241.91 48.0491 241.89 48.0191 241.86 47.9791C241.04 46.8591 239.48 46.5691 238.29 47.2791Z" stroke="#A2A2A2" stroke-width="0.75" stroke-miterlimit="10"/>
<path d="M238.29 50.319C239.48 49.609 241.05 49.8991 241.86 51.0191C241.88 51.0491 241.91 51.0891 241.93 51.1191C242.08 51.3491 242.21 51.5991 242.3 51.8591C242.7 50.4291 242.59 49.0691 241.93 48.0791C241.91 48.0491 241.89 48.0191 241.86 47.9791C241.04 46.8591 239.48 46.5691 238.29 47.2791L194.81 72.9991C193.02 74.8791 192.33 77.269 192.97 79.179C193.29 78.089 193.9 76.9991 194.81 76.0491L238.29 50.3291V50.319Z" fill="#0CA453"/>
<path d="M238.29 77.509L194.81 103.229C192.88 105.259 192.21 107.889 193.13 109.859C193.13 109.859 193.13 109.859 193.13 109.869C193.7 111.079 195.2 111.519 196.36 110.859C210.95 102.459 225.55 94.0691 240.14 85.6691C242.56 83.2491 243.16 80.1391 241.93 78.3091C241.91 78.2791 241.89 78.249 241.86 78.209C241.04 77.089 239.48 76.799 238.29 77.509Z" stroke="#A2A2A2" stroke-width="0.75" stroke-miterlimit="10"/>
<path d="M238.29 80.5491C239.48 79.8391 241.05 80.1291 241.86 81.2491C241.88 81.2791 241.91 81.3191 241.93 81.3491C242.08 81.5791 242.21 81.8291 242.3 82.0891C242.7 80.6591 242.59 79.2991 241.93 78.3091C241.91 78.2791 241.89 78.249 241.86 78.209C241.04 77.089 239.48 76.799 238.29 77.509L194.81 103.229C193.02 105.109 192.33 107.499 192.97 109.409C193.29 108.319 193.9 107.229 194.81 106.279L238.29 80.5591V80.5491Z" fill="#0CA453"/>
<path d="M226.74 117.219L198.5 133.429C197.22 134.439 196.56 136.019 196.82 137.539C196.82 137.559 196.82 137.569 196.82 137.589C197.1 139.189 198.93 139.979 200.33 139.159C209.14 133.999 217.96 128.839 226.77 123.679C227.69 123.139 228.48 122.399 229.01 121.479C229.8 120.109 229.89 118.699 229.29 117.799C229.26 117.759 229.23 117.709 229.19 117.659C228.6 116.919 227.55 116.759 226.73 117.219H226.74Z" stroke="#A2A2A2" stroke-width="0.75" stroke-miterlimit="10"/>
<path d="M229.65 117.509C229.65 117.509 229.59 117.419 229.55 117.369C228.96 116.629 227.91 116.469 227.09 116.929L198.85 133.139C197.57 134.149 196.91 135.729 197.17 137.249C197.17 137.269 197.17 137.279 197.17 137.299C197.2 137.449 197.25 137.589 197.3 137.719C197.56 136.859 198.09 136.069 198.84 135.479L227.08 119.269C227.9 118.799 228.95 118.969 229.54 119.709C229.58 119.759 229.62 119.809 229.64 119.849C229.71 119.949 229.77 120.069 229.82 120.179C230.15 119.159 230.09 118.189 229.64 117.509H229.65Z" fill="#0CA453"/>
<path d="M288.187 147.68C299.087 128.802 298.26 107.919 286.341 101.038C274.422 94.1565 255.924 103.882 245.025 122.76C234.125 141.638 234.952 162.521 246.871 169.402C258.79 176.284 277.288 166.558 288.187 147.68Z" fill="#E05A5E"/>
<path d="M293.544 149.602C304.443 130.724 303.616 109.841 291.697 102.96C279.778 96.0783 261.28 105.804 250.381 124.682C239.482 143.56 240.308 164.442 252.227 171.324C264.146 178.205 282.644 168.48 293.544 149.602Z" fill="white" stroke="black" stroke-miterlimit="10" stroke-linecap="round"/>
<path d="M286.75 122.219L254.62 143.719C254.13 144.049 253.85 144.619 253.91 145.219L254.64 153.189C254.75 154.409 256.13 155.069 257.15 154.389L289.28 133.069C289.78 132.739 290.05 132.169 290 131.569L289.27 123.409C289.16 122.179 287.78 121.519 286.75 122.209V122.219Z" fill="#E05A5E"/>
</svg>
